<?xml version="1.0" encoding="utf-8"?>
<!-- Generator: Adobe Illustrator 20.0.0, SVG Export Plug-In . SVG Version: 6.00 Build 0)  -->
<svg version="1.1" id="Capa_1" xmlns="http://www.w3.org/2000/svg" xmlns:xlink="http://www.w3.org/1999/xlink" x="0px" y="0px"
	 viewBox="0 0 439.6 397.1" style="enable-background:new 0 0 439.6 397.1;" xml:space="preserve">
<style type="text/css">
	.st0{stroke:#000000;stroke-miterlimit:10;}
	.st1{fill:#FFFFFF;}
</style>
<path d="M221.2,270.1c0.8-0.1,1.4-0.8,1.4-1.6c0-7.7,0-15.4,0-23.1c-0.1-16.6-6.7-30.1-19.5-40.6c-9.5-7.7-20.6-11.3-32.8-11.3
	c-1.3,0-2.7,0-4.4,0c0.7-0.7,1-1,1.3-1.2c15.7-14.7,19-36.6,8.4-55.3c-0.1-0.2-75.9-0.5-76.4,0.5c-6.5,11.8-7.7,24-3.4,36.8
	c2.6,7.5,7,13.7,13.1,19.1c-4.3,0.3-8.4,0.4-12.3,0.9C72,197.4,53,218.7,52.5,243.4c-0.2,9.2-0.1,18.4-0.1,27.6
	c0,2.4,6.8-3.4,6.8-3.5c0.1-8.6-0.2-17.2,0.2-25.8c1.1-19.3,15.7-36.2,34.7-40.2c5.2-1.1,10.5-1.1,16.1-1.7c0,3.5,0,6.3,0,9.2
	c0,3.9,0.8,4.7,4.7,5.1c6.4,0.6,11.7,3.3,15.7,8.3c0.4,0.5,0.7,1,1.3,1.8c-1.5,0-2.6,0-3.7,0c-10.4-0.5-18.3,8-18,18
	c0.2,8,0,16.1,0,24.1c0,0.4-0.1,0.9,0,1.4c0.1,0.3,0.2,0.6,0.5,0.7c1.6,0.8,4.2,1.1,6.1,0c0.2-0.1,0.2-0.4,0.3-0.6
	c0-0.6-0.1-1.3,0-1.9c0.7-7.4,1-14.8,0.1-22.1c-0.9-7.5,3.5-12.7,10.5-12.8c3,0,6.1,0,9.1,0c2,0,3.2-0.8,4-2.7
	c3.6-8.7,10.3-13.4,19.7-14.3c2.4-0.2,4.2-2.3,4.2-4.7c0-2.8,0-5.6,0-8.4c0-0.1,0-0.2,0.1-0.5c28-2.7,47.3,16.6,50.4,37.8
	c0.4,2.6,0.5,5.2,0.6,7.8c0.1,6.7,0,13.4,0,20.2c0,0.6-0.1,3.1,0.2,3.3C217.8,270.6,219.3,270.4,221.2,270.1z M157.8,207.4
	c-8.4,1.4-15.2,5.4-20.3,12.6c-5-7.1-11.8-11.2-20.3-12.6v-8.6c13.5,6.5,27,6.5,40.6,0V207.4z M137.5,196.9
	c-27,0.1-45.3-28.1-34.3-52.7c0.6-1.3,1.2-1.8,2.7-1.8c21.1,0.1,42.1,0.1,63.2,0c1.1,0,2.1,0.6,2.5,1.6c2.1,4.9,3.3,10,3.3,15.3
	C174.9,180.1,158.1,196.9,137.5,196.9z"/>
<path d="M124,254.9c2.2,0,4.3,0,6.5,0c0,2.2,0,4.4,0,6.6c-2.2,0-4.3,0-6.5,0C124,259.3,124,257.2,124,254.9z"/>
<path d="M141.9,261.5c-2.2,0-4.3,0-6.5,0c0-2.2,0-4.4,0-6.6c2.1,0,4.3,0,6.5,0C141.9,257.1,141.9,259.3,141.9,261.5z"/>
<path d="M130.5,244.5c-2.2,0-4.3,0-6.5,0c0-2.2,0-4.4,0-6.7c2.2,0,4.3,0,6.5,0C130.5,240,130.5,242.2,130.5,244.5z"/>
<path d="M141.9,244.5c-2.2,0-4.3,0-6.5,0c0-2.2,0-4.3,0-6.6c2.1,0,4.2,0,6.5,0C141.9,240.1,141.9,242.3,141.9,244.5z"/>
<path d="M114.8,179c1.5-1.7,2.9-3.3,4.4-4.9c0.4,0.2,0.8,0.4,1.1,0.6c4.9,3.2,10.3,2.1,13.7-2.6c2.3-3.2,4.6-3.2,6.8-0.1
	c3.6,5,8.7,5.8,14.8,2c1.4,1.6,2.9,3.2,4.4,4.9c-4.7,4.6-14.4,7.1-22.6-0.3c-3.8,3.5-8.3,5.3-13.5,4.6
	C120.5,182.8,117.5,181.4,114.8,179z"/>
<path d="M422.1,352.2c0,9.9,0,19.5,0,29.3c-136.2,0-272.2,0-408.6,0c0-9.7,0-19.4,0-29.3C149.6,352.2,285.7,352.2,422.1,352.2z"/>
<path d="M422,332.7c0,4.4,0,8.4,0,12.7c-136.2,0-272.4,0-408.7,0c0-4.2,0-8.3,0-12.7C149.5,332.7,285.6,332.7,422,332.7z"/>
<g>
	<path class="st0" d="M140.8,8.4c2.3,0.4,4.6,0.6,6.8,1.1c12,2.6,21.8,8.8,29.2,18.5c0.5,0.7,1.1,1,2,1c14.2,0.1,25.3,12,24.5,26.1
		c-0.7,12.1-10.3,22-22.3,23c-1.4,0.1-2.8,0.2-4.4,0.2c0,0.4,0,0.8,0,1.2c0,4.3,0,8.6,0,12.9c0,1.3-0.9,2.2-2.1,2.2
		c-1.1,0-2-0.9-2-2.2c0-0.3,0-0.6,0-0.9c0-4,0-8,0-12.1c0-0.4,0-0.8,0-1.3c-0.5,0-0.9,0-1.4,0c-11.6,0-23.2,0-34.8,0
		c-0.5,0-1,0-1.4-0.1c-1-0.2-1.6-1.2-1.5-2.1c0.1-1,0.9-1.8,1.9-1.9c0.4,0,0.7,0,1.1,0c14.1,0,28.2,0,42.3,0
		c9.2,0,17.2-6.1,19.7-14.9c3.5-12.2-4.8-24.7-17.4-26.1c-0.1,0-0.3,0-0.6,0c0.2,0.4,0.4,0.7,0.5,1c1.4,3.4,2.8,6.8,4.2,10.2
		c0.2,0.4,0.3,0.9,0.2,1.4c0,0.9-0.8,1.7-1.7,1.8c-1,0.1-1.9-0.4-2.3-1.5c-0.5-1.6-0.9-3.2-1.5-4.7c-6.8-16.1-18.7-26-36-28.4
		c-15.9-2.3-29.3,3.1-40.2,14.9c-0.2,0.3-0.4,0.5-0.8,1c0.6,0,1,0,1.4,0c6.1,0,12.2,0,18.3,0c0.4,0,0.7,0,1.1,0
		c0.9,0.1,1.6,0.9,1.7,1.9c0.1,0.9-0.6,1.8-1.5,2.1c-0.5,0.1-1,0.1-1.5,0.1c-8.6,0-17.1,0-25.7,0c-10.1,0-18.3,6.8-20.3,16.6
		C73.7,62.2,83.3,74.1,96,74.2c7,0.1,14,0,20.9,0c3.5,0,6.2-2.7,6.2-6.2c0-3.5-2.7-6.1-6.2-6.1c-1.9,0-3.9,0-5.8,0
		c-1.4,0-2.3-0.7-2.3-1.9c-0.1-1.3,0.8-2.2,2.2-2.2c2.6,0,5.1-0.2,7.7,0.1c5.4,0.8,9,5.6,8.6,11.1c-0.4,5.2-4.9,9.2-10.2,9.3
		c-4.3,0-8.7,0-13,0c-0.4,0-0.8,0-1.3,0c0,15.7,0,31.4,0,47.2c4.7,0,9.4,0,14.3,0c0-0.4,0-0.9,0-1.3c0-9.4,0-18.9,0-28.3
		c0-0.3,0-0.6,0-0.9c0-1.4,0.9-2.3,2.1-2.3c1.2,0,2,0.9,2,2.4c0,8.3,0,16.6,0,24.9c0,1.8,0,3.6,0,5.6c4.8,0,9.5,0,14.4,0
		c0-0.4,0-0.9,0-1.3c0-9.3,0-18.6,0-28c0-0.3,0-0.7,0-1c0-1.6,0.8-2.6,2-2.6c1.3,0,2,0.9,2,2.6c0,9.6,0,19.2,0,28.8
		c0,0.4,0,0.9,0,1.4c4.8,0,9.6,0,14.4,0c0-0.4,0-0.9,0-1.3c0-9.5,0-19.1,0-28.6c0-0.4,0-0.7,0-1.1c0.1-1,0.9-1.7,1.9-1.8
		c0.9-0.1,1.8,0.5,2,1.5c0.1,0.4,0.1,0.9,0.1,1.4c0,9.5,0,19,0,28.5c0,0.4,0,0.9,0,1.4c4.8,0,9.5,0,14.4,0c0-0.4,0-0.8,0-1.2
		c0-4.8,0-9.6,0-14.4c0-0.4,0-0.8,0.1-1.2c0.2-1,1.1-1.7,2.2-1.6c1,0.1,1.7,0.9,1.8,1.9c0,0.3,0,0.6,0,0.9c0,7.8,0,15.6,0,23.5
		c0,4.2-2.5,6.7-6.7,6.7c-21.6,0-43.1,0-64.7,0c-4.2,0-6.7-2.5-6.7-6.8c0-17.8,0-35.6,0-53.4c0-0.4,0-0.9,0-1.4
		c-1.5-0.1-3-0.1-4.5-0.3c-10.7-0.9-20-9.4-21.8-19.9c-2.4-13.8,6.1-26.3,19.9-28.9c1.5-0.3,3-0.2,4.5-0.4c0.5-0.1,1.1-0.3,1.4-0.7
		c7.9-10.4,18.3-16.7,31.1-19.1c1.7-0.3,3.5-0.5,5.2-0.7C136.4,8.4,138.6,8.4,140.8,8.4z M172.4,129.8c-23.3,0-46.5,0-69.8,0
		c0,1.1,0,2.1,0,3.1c0,2.4,0.5,3,2.9,3c21.3,0,42.7,0,64,0c0.4,0,0.8,0,1.2,0c0.9-0.2,1.6-0.7,1.7-1.6
		C172.5,132.8,172.4,131.3,172.4,129.8z"/>
	<path class="st0" d="M176.7,101.3c0,1.1-0.9,2.1-2.1,2.1c-1.1,0-2-0.9-2-2c0-1.1,0.9-2.1,2.1-2.1
		C175.8,99.3,176.7,100.1,176.7,101.3z"/>
</g>
<g>
	<path d="M391.7,316.5c0,2.9,0,5.6,0,8.5c-33.6,0-67,0-100.6,0c0-2.8,0-5.5,0-8.5C324.6,316.5,358,316.5,391.7,316.5z"/>
	<path d="M383.5,303.7c-1.7,0.1-2.9,0.2-4.2,0.3c-1-3.8-2.2-7.4-3-11c-1.8-8.6-7.5-13.2-18.8-13.8c-13-0.7-25.8-0.9-38.6,1
		c-5.2,0.8-8.5,2.8-10,6.8c-2,5.5-3.8,11.1-5.8,16.9c-0.8,0-2.1-0.1-3.8-0.2c1.5-8.1,2.9-16,8.6-22.7c1.4-1.6,4.1-2.9,6.6-3.5
		c11.2-2.6,22.8-3.2,34.4-2.5c6.3,0.4,12.6,1.4,18.8,2.2c4.4,0.6,7.2,2.9,9.1,6C380.6,289.7,382.2,296.5,383.5,303.7z"/>
	<path d="M399.7,300.7c0,1.6,0,3.2,0,4.8c-38.5,0-75.7,0-114.9,0c-0.5,0-1.1,0-1.6,0c0-1.6,0-3.1,0-4.8
		C322,300.7,359.7,300.7,399.7,300.7z"/>
	<path class="st0" d="M291.1,325c0-5.1-6.4-19.5-6.4-19.5h4.2l2.1,11.4"/>
	<path class="st0" d="M391.8,325c0-5.1,6.4-19.5,6.4-19.5h-4.2l-2.1,11.4"/>
</g>
<g>
	<path d="M266.7,317.5c0,2.9,0,5.6,0,8.5c-33.6,0-67,0-100.6,0c0-2.8,0-5.5,0-8.5C199.6,317.5,233,317.5,266.7,317.5z"/>
	<path d="M258.5,304.7c-1.7,0.1-2.9,0.2-4.2,0.3c-1-3.8-2.2-7.4-3-11c-1.8-8.6-7.5-13.2-18.8-13.8c-13-0.7-25.8-0.9-38.6,1
		c-5.2,0.8-8.5,2.8-10,6.8c-2,5.5-3.8,11.1-5.8,16.9c-0.8,0-2.1-0.1-3.8-0.2c1.5-8.1,2.9-16,8.6-22.7c1.4-1.6,4.1-2.9,6.6-3.5
		c11.2-2.6,22.8-3.2,34.4-2.5c6.3,0.4,12.6,1.4,18.8,2.2c4.4,0.6,7.2,2.9,9.1,6C255.6,290.7,257.2,297.5,258.5,304.7z"/>
	<path d="M274.7,301.7c0,1.6,0,3.2,0,4.8c-38.5,0-75.7,0-114.9,0c-0.5,0-1.1,0-1.6,0c0-1.6,0-3.1,0-4.8
		C197,301.7,234.7,301.7,274.7,301.7z"/>
	<path class="st0" d="M166.1,326c0-5.1-6.4-19.5-6.4-19.5h4.2l2.1,11.4"/>
	<path class="st0" d="M266.8,326c0-5.1,6.4-19.5,6.4-19.5h-4.2l-2.1,11.4"/>
</g>
<g>
	<path d="M136.7,317.5c0,2.9,0,5.6,0,8.5c-33.6,0-67,0-100.6,0c0-2.8,0-5.5,0-8.5C69.6,317.5,103,317.5,136.7,317.5z"/>
	<path d="M128.5,304.7c-1.7,0.1-2.9,0.2-4.2,0.3c-1-3.8-2.2-7.4-3-11c-1.8-8.6-7.5-13.2-18.8-13.8c-13-0.7-25.8-0.9-38.6,1
		c-5.2,0.8-8.5,2.8-10,6.8c-2,5.5-3.8,11.1-5.8,16.9c-0.8,0-2.1-0.1-3.8-0.2c1.5-8.1,2.9-16,8.6-22.7c1.4-1.6,4.1-2.9,6.6-3.5
		c11.2-2.6,22.8-3.2,34.4-2.5c6.3,0.4,12.6,1.4,18.8,2.2c4.4,0.6,7.2,2.9,9.1,6C125.6,290.7,127.2,297.5,128.5,304.7z"/>
	<path d="M144.7,301.7c0,1.6,0,3.2,0,4.8c-38.5,0-75.7,0-114.9,0c-0.5,0-1.1,0-1.6,0c0-1.6,0-3.1,0-4.8
		C67,301.7,104.7,301.7,144.7,301.7z"/>
	<path class="st0" d="M36.1,326c0-5.1-6.4-19.5-6.4-19.5H34l2.1,11.4"/>
	<path class="st0" d="M136.8,326c0-5.1,6.4-19.5,6.4-19.5h-4.2l-2.1,11.4"/>
</g>
<g>
	<path d="M163.5,264.5c-0.5-2.1-1.1-4.1-1.6-6.1c-0.3-1.3-0.7-2.6-1-3.9c-0.2-0.6-0.6-1-1.2-1.1c-3.2-0.8-6.4-1.6-9.6-2.4
		c-0.2,0-0.3-0.1-0.5-0.2c1-1.6,1.9-3.2,2.8-4.8c0.8-1.4,1.7-2.8,2.5-4.2c0.3-0.5,0.3-1,0-1.5c-1.6-2.7-3.3-5.5-4.9-8.2
		c-0.1-0.2-0.2-0.4-0.3-0.6c1.6-0.4,3.2-0.9,4.8-1.3c1.7-0.4,3.4-0.9,5-1.3c0.7-0.2,1-0.6,1.2-1.2c0.8-3.2,1.6-6.3,2.4-9.5
		c0-0.1,0.1-0.3,0.1-0.5c0.2,0.1,0.4,0.2,0.6,0.3c2.8,1.6,5.5,3.3,8.3,4.9c0.6,0.4,1.1,0.4,1.8,0c2.7-1.6,5.4-3.2,8-4.8
		c0.2-0.1,0.4-0.2,0.6-0.4c0.3,1.1,0.6,2.1,0.8,3.2c0.6,2.2,1.1,4.5,1.7,6.7c0.2,0.6,0.5,1,1.2,1.1c3.2,0.8,6.4,1.6,9.6,2.4
		c0.1,0,0.3,0.1,0.4,0.1c-0.1,0.2-0.2,0.4-0.3,0.6c-1.6,2.8-3.3,5.5-4.9,8.3c-0.3,0.6-0.3,1.1,0,1.6c1.6,2.7,3.3,5.4,4.9,8.1
		c0.1,0.2,0.2,0.4,0.3,0.6c-1.3,0.3-2.6,0.7-3.8,1c-2,0.5-4,1.1-6,1.6c-0.6,0.2-1,0.6-1.2,1.2c-0.8,3.2-1.6,6.4-2.4,9.6
		c0,0.1-0.1,0.3-0.1,0.4c-0.2-0.1-0.4-0.2-0.6-0.3c-2.8-1.6-5.6-3.3-8.4-5c-0.6-0.3-1-0.3-1.6,0c-2.7,1.6-5.4,3.2-8.1,4.8
		C163.9,264.3,163.8,264.4,163.5,264.5z M188.7,241.2c0-8.6-6.9-15.6-15.6-15.6c-8.6,0-15.6,6.9-15.7,15.5c0,8.7,6.9,15.7,15.6,15.7
		C181.6,256.9,188.6,249.9,188.7,241.2z"/>
	<path d="M173,277.5c-2.1,2.6-4,5.2-6.1,7.9c0-0.2-0.1-0.4-0.1-0.5c0-6.7,0-13.5,0-20.2c0-0.4,0.1-0.5,0.4-0.7
		c1.8-1.1,3.6-2.1,5.4-3.2c0.3-0.2,0.5-0.2,0.8,0c1.8,1.1,3.6,2.1,5.4,3.2c0.3,0.2,0.4,0.3,0.4,0.7c0,6.8,0,13.6,0,20.4
		c0,0.1,0,0.3,0,0.5C177.1,282.7,175.1,280.1,173,277.5z"/>
	<path class="st1" d="M188.7,241.2c0,8.7-7,15.7-15.7,15.6c-8.6,0-15.6-7.1-15.6-15.7c0-8.6,7.1-15.6,15.7-15.5
		C181.8,225.6,188.7,232.6,188.7,241.2z M187.3,241.3c0.1-7.8-6.3-14.3-14.1-14.4c-7.9-0.1-14.4,6.2-14.4,14
		c-0.1,8,6.2,14.4,14.2,14.5C180.9,255.5,187.2,249.3,187.3,241.3z"/>
	<path d="M187.3,241.3c-0.1,7.9-6.4,14.2-14.4,14.1c-7.9-0.1-14.2-6.5-14.2-14.5c0.1-7.8,6.5-14.1,14.4-14
		C181,227,187.4,233.5,187.3,241.3z M164,240.6c0-0.1,0.1-0.1,0.1-0.2c0.3-0.7,0.3-1.3-0.2-1.7c-0.4-0.4-1.1-0.5-1.7-0.2
		c-0.5,0.3-0.8,1-0.6,1.5c0.2,0.6,0.7,1.1,1.5,1c0.4,0,0.4,0.2,0.5,0.4c1.2,2.8,2.4,5.7,3.6,8.5c0.2,0.4,0.4,0.5,0.8,0.5
		c3.3,0,6.7,0,10,0c0.4,0,0.6-0.1,0.8-0.5c1.2-2.8,2.3-5.5,3.5-8.3c0.2-0.4,0.3-0.7,0.8-0.6c0.8,0,1.5-0.8,1.4-1.5
		c-0.1-0.8-0.8-1.3-1.6-1.2c-0.8,0.1-1.3,0.8-1.2,1.6c0,0.2,0.1,0.5,0.2,0.7c-2,1.5-3.9,3-6,4.5c-0.8-3.4-1.6-6.8-2.4-10.1
		c1.2-0.7,1.5-1.4,1.3-2.4c-0.2-0.8-0.9-1.4-1.7-1.4c-0.9-0.1-1.7,0.4-2,1.2c-0.4,1-0.1,1.6,1.1,2.6c-0.8,3.3-1.6,6.7-2.4,10.1
		C168,243.6,166,242.1,164,240.6z"/>
	<path class="st1" d="M164,240.6c2,1.5,4,3,6,4.6c0.8-3.4,1.6-6.8,2.4-10.1c-1.2-1-1.5-1.7-1.1-2.6c0.3-0.8,1.1-1.3,2-1.2
		c0.8,0.1,1.5,0.6,1.7,1.4c0.2,1-0.1,1.7-1.3,2.4c0.8,3.3,1.6,6.7,2.4,10.1c2-1.5,4-3,6-4.5c-0.1-0.3-0.2-0.5-0.2-0.7
		c-0.1-0.8,0.4-1.5,1.2-1.6c0.8-0.1,1.5,0.4,1.6,1.2c0.1,0.8-0.6,1.6-1.4,1.5c-0.6,0-0.7,0.2-0.8,0.6c-1.2,2.8-2.3,5.5-3.5,8.3
		c-0.2,0.4-0.4,0.5-0.8,0.5c-3.3,0-6.7,0-10,0c-0.4,0-0.6-0.1-0.8-0.5c-1.2-2.8-2.4-5.7-3.6-8.5c-0.1-0.2-0.2-0.5-0.5-0.4
		c-0.8,0-1.3-0.4-1.5-1c-0.2-0.6,0.1-1.2,0.6-1.5c0.5-0.3,1.2-0.2,1.7,0.2c0.5,0.5,0.6,1,0.2,1.7C164.1,240.5,164.1,240.5,164,240.6
		z"/>
</g>
</svg>
