<svg id="Capa_1" data-name="Capa 1" xmlns="http://www.w3.org/2000/svg" viewBox="0 0 80 80"><defs><style>.cls-1,.cls-4{fill:#9c9c9c;}.cls-1,.cls-2,.cls-6,.cls-8,.cls-9{stroke:#000;stroke-miterlimit:10;}.cls-1,.cls-2,.cls-6{stroke-width:0.5px;}.cls-2,.cls-5,.cls-8{fill:#cecece;}.cls-3{fill:#fff;}.cls-6{fill:none;}.cls-7{fill:#467c5f;}.cls-8,.cls-9{stroke-width:0.25px;}.cls-9{font-size:3.09px;font-family:MyriadPro-Regular, Myriad Pro;}.cls-10{letter-spacing:-0.02em;}</style></defs><title>Mesa de trabajo 1</title><path d="M45.67,25.88,46,26a2.47,2.47,0,0,1,1.88,2.09,3.65,3.65,0,0,1,0,.38q0,13.59,0,27.17a2.38,2.38,0,0,1-1,2,2.64,2.64,0,0,1-1.62.54H32.86a2.53,2.53,0,0,1-2.6-2.39c0-.06,0-.13,0-.19q0-13.55,0-27.09a2.44,2.44,0,0,1,1.63-2.42c.21-.08.42-.13.63-.19ZM47.62,42q0-6.82,0-13.64a2.23,2.23,0,0,0-2.42-2.22H33.88a2.24,2.24,0,0,0-2.43,2.24q0,13.63,0,27.26a2.24,2.24,0,0,0,2.43,2.24H45.17a3.11,3.11,0,0,0,.7-.07,2.15,2.15,0,0,0,1.75-2.15Q47.62,48.84,47.62,42ZM32.36,57.79a2.6,2.6,0,0,1-1.23-2.4c0-5.31,0-10.62,0-15.92v-.34h-.55v.33q0,8.06,0,16.11c0,.14,0,.29,0,.43A2.16,2.16,0,0,0,32.36,57.79ZM31.13,30.34c0-.68,0-1.33,0-2a2.35,2.35,0,0,1,1-2l.15-.09a2,2,0,0,0-1.72,1.81c0,.71,0,1.42,0,2.12a.38.38,0,0,0,0,.1Zm0,5.09V34H30.6v1.4Zm-.52,2v1.4h.51v-1.4ZM31.11,32V30.65H30.6V32Zm0,.31h-.53v1.36h.53Zm0,4.76V35.74h-.53v1.38Z"/><ellipse class="cls-1" cx="37.04" cy="23.14" rx="1.09" ry="1.08" transform="translate(-0.25 0.41) rotate(-0.63)"/><ellipse class="cls-2" cx="35.95" cy="20.78" rx="0.57" ry="0.56" transform="matrix(1, -0.01, 0.01, 1, -0.22, 0.39)"/><path d="M30.91,42.21q0-7,0-14a2.18,2.18,0,0,1,1.74-2.24,2.8,2.8,0,0,1,.58,0H45.65a2.17,2.17,0,0,1,2.28,2.29q0,14,0,28.1a2.17,2.17,0,0,1-2.29,2.29H33.19a2.17,2.17,0,0,1-2.28-2.29Q30.91,49.24,30.91,42.21Zm16.64,0q0-7,0-14a1.78,1.78,0,0,0-1.89-1.9H33.23a2.43,2.43,0,0,0-.55,0,1.8,1.8,0,0,0-1.38,1.91q0,14,0,27.93a1.81,1.81,0,0,0,2,2c4.08,0,8.15,0,12.23,0a1.93,1.93,0,0,0,2-2C47.53,51.48,47.54,46.83,47.54,42.18Z"/><path class="cls-3" d="M47.54,42.18c0,4.65,0,9.3,0,13.95a1.93,1.93,0,0,1-2,2c-4.08,0-8.15,0-12.23,0a1.81,1.81,0,0,1-2-2q0-14,0-27.93a1.8,1.8,0,0,1,1.38-1.91,2.43,2.43,0,0,1,.55,0H45.65a1.78,1.78,0,0,1,1.89,1.9Q47.55,35.17,47.54,42.18Zm-15.68,0q0,5.87,0,11.74c0,.62.15.77.76.77H46.22c.59,0,.75-.16.75-.75q0-11.74,0-23.48c0-.59-.16-.75-.75-.75H32.63c-.62,0-.77.15-.77.76Q31.87,36.34,31.87,42.19Zm8.94,14.23a1.39,1.39,0,1,0-1.4,1.4A1.38,1.38,0,0,0,40.81,56.42Zm-1.38-27.6a.5.5,0,1,0-.51-.51A.5.5,0,0,0,39.43,28.82Z"/><path d="M31.87,42.19q0-5.85,0-11.71c0-.62.15-.76.77-.76H46.23c.59,0,.75.16.75.75Q47,42.21,47,54c0,.59-.16.75-.75.75H32.63c-.61,0-.76-.15-.76-.77Q31.87,48.06,31.87,42.19Zm.39,0q0,5.85,0,11.7c0,.3.07.41.4.41q6.76,0,13.52,0c.33,0,.42-.09.42-.42q0-11.69,0-23.37c0-.32-.07-.43-.41-.43H32.69c-.43,0-.43,0-.43.43Q32.26,36.38,32.26,42.21Z"/><path d="M40.81,56.42A1.39,1.39,0,1,1,39.43,55,1.4,1.4,0,0,1,40.81,56.42Zm-2.39,0a1,1,0,1,0,2,.1,1,1,0,1,0-2-.1Z"/><path d="M39.43,28.82a.5.5,0,1,1,.51-.49A.5.5,0,0,1,39.43,28.82Z"/><path class="cls-3" d="M38.42,56.38a1,1,0,1,1,2,.1,1,1,0,1,1-2-.1Z"/><path d="M43.38,66.35H44c.58,0,.58,0,.58.59s0,.88,0,1.36c.17,0,.32,0,.46,0s.31.1.31.31q0,3.9,0,7.8c0,.22-.08.31-.31.31H34.86c-.21,0-.29-.08-.29-.29q0-3.91,0-7.83c0-.23.08-.32.31-.3h.45c0-.4,0-.8,0-1.19,0-.86-.11-.76.74-.77h.17a2.59,2.59,0,0,0-.94-2.94A1.71,1.71,0,0,1,34.57,62q0-5.23,0-10.47a1.46,1.46,0,0,1,.92-1.44,1.44,1.44,0,0,1,1.67.38l.1.09a1.51,1.51,0,0,1,2.61-.31,1.53,1.53,0,0,1,1.1-.86,1.54,1.54,0,0,1,1.37.43c0-.15,0-.25,0-.35,0-.85,0-1.7,0-2.55a1.49,1.49,0,0,1,1.3-1.47,1.47,1.47,0,0,1,1.6,1.06,2.37,2.37,0,0,1,.07.63q0,5,0,9.92v.4c.09-.13.14-.19.18-.25L46.83,55A2.36,2.36,0,0,1,50,54.13c.23.09.15.25.07.41l-2,4.22c-.44.93-.89,1.87-1.31,2.8a3.31,3.31,0,0,1-1.93,1.77,2.36,2.36,0,0,0-1.42,2C43.38,65.68,43.38,66,43.38,66.35ZM49,54.29a1.68,1.68,0,0,0-1.8.83c-.59,1-1.16,1.94-1.75,2.9a.85.85,0,0,1-.12.19c-.05,0-.14.1-.19.09a.33.33,0,0,1-.15-.18.7.7,0,0,1,0-.23q0-3.67,0-7.34c0-1.21,0-2.42,0-3.62a1.11,1.11,0,1,0-2.22,0q0,4.13,0,8.26c0,.16.07.41-.18.42s-.2-.26-.2-.43c0-1.47,0-2.94,0-4.41a1.1,1.1,0,0,0-1.2-1.13,1.11,1.11,0,0,0-1,1.16c0,1.49,0,3,0,4.47,0,.11-.1.32-.17.33-.23,0-.19-.18-.2-.33s0-.14,0-.2c0-1.31,0-2.63,0-3.94A1.1,1.1,0,0,0,38.63,50a1.11,1.11,0,0,0-1.1,1.2c0,.31,0,.62,0,.93q0,1.64,0,3.28c0,.14,0,.31-.2.28s-.13-.17-.16-.28a.71.71,0,0,1,0-.23c0-1.22,0-2.44,0-3.65a1.11,1.11,0,0,0-1.24-1.17,1.13,1.13,0,0,0-1,1.24q0,5.13,0,10.26a1.55,1.55,0,0,0,.69,1.35,2.28,2.28,0,0,1,1,2c0,.36,0,.73,0,1.09H43c0-.35,0-.68,0-1A2.75,2.75,0,0,1,44.67,63a2.94,2.94,0,0,0,1.73-1.57c1-2.09,2-4.18,2.94-6.26l.32-.7c-.19-.15-.31-.11-.42.09-.4.73-.82,1.44-1.23,2.16a.71.71,0,0,1-.14.22.25.25,0,0,1-.22,0,.26.26,0,0,1-.08-.21.68.68,0,0,1,.12-.23Zm-4,14.4H35v7.65h10Zm-9.24-.4h8.48V66.75H35.71Z"/><path class="cls-3" d="M49,54.29l-1.28,2.23a.68.68,0,0,0-.12.23.26.26,0,0,0,.08.21.25.25,0,0,0,.22,0A.71.71,0,0,0,48,56.7c.41-.72.83-1.44,1.23-2.16.11-.2.22-.24.42-.09l-.32.7c-1,2.09-2,4.17-2.94,6.26A2.94,2.94,0,0,1,44.67,63,2.75,2.75,0,0,0,43,65.33c0,.33,0,.65,0,1H36.66c0-.37,0-.73,0-1.09a2.28,2.28,0,0,0-1-2,1.55,1.55,0,0,1-.69-1.35q0-5.13,0-10.26a1.13,1.13,0,0,1,1-1.24,1.11,1.11,0,0,1,1.24,1.17c0,1.22,0,2.44,0,3.65a.71.71,0,0,0,0,.23c0,.1.1.26.16.28s.2-.13.2-.28q0-1.64,0-3.28c0-.31,0-.62,0-.93a1.11,1.11,0,0,1,1.1-1.2,1.1,1.1,0,0,1,1.13,1.2c0,1.31,0,2.63,0,3.94,0,.07,0,.14,0,.2s0,.36.2.33c.07,0,.17-.21.17-.33,0-1.49,0-3,0-4.47a1.11,1.11,0,0,1,1-1.16,1.1,1.1,0,0,1,1.2,1.13c0,1.47,0,2.94,0,4.41,0,.16-.08.43.2.43s.18-.26.18-.42q0-4.13,0-8.26a1.11,1.11,0,1,1,2.22,0c0,1.21,0,2.42,0,3.62q0,3.67,0,7.34a.7.7,0,0,0,0,.23.33.33,0,0,0,.15.18s.14,0,.19-.09a.85.85,0,0,0,.12-.19c.58-1,1.16-1.94,1.75-2.9A1.68,1.68,0,0,1,49,54.29Z"/><path class="cls-4" d="M44.94,68.69v7.65H35V68.69Z"/><path class="cls-5" d="M35.71,68.29V66.75h8.48v1.53Z"/><path class="cls-6" d="M35,22.47c-3.19-9.89-10.28-11.31-10.28-11.31h0a7.43,7.43,0,1,0-1.14,14c1.33-.22,4.33-2.51,5.53-2.65,3.74-.42,3.44,2.26,5.17,2C35.36,24.25,35,22.47,35,22.47Z"/><path d="M22.07,13a4.49,4.49,0,0,1,.9,8.88,4.41,4.41,0,0,1-3.23-.56.15.15,0,0,0-.14,0l-1.6.55c-.05,0-.1,0-.15,0s0-.1,0-.15l.49-1.63a.16.16,0,0,0,0-.15,4.48,4.48,0,0,1,2.91-6.84c.28-.05.57-.07.86-.11Zm-4,8.61.09,0,1.42-.49a.22.22,0,0,1,.21,0,4.19,4.19,0,0,0,3.32.52,4.28,4.28,0,1,0-4.61-1.76.2.2,0,0,1,0,.19l-.33,1.1Z"/><path class="cls-3" d="M18.08,21.59l.14-.46.33-1.1a.2.2,0,0,0,0-.19,4.24,4.24,0,0,1-.72-2.58,4.28,4.28,0,1,1,5.33,4.35,4.19,4.19,0,0,1-3.32-.52.22.22,0,0,0-.21,0l-1.42.49Zm1.28-5.41a2.39,2.39,0,0,0,.26.95,6,6,0,0,0,2.66,2.75,2.53,2.53,0,0,0,1,.29,1.35,1.35,0,0,0,1-.29,1.71,1.71,0,0,0,.5-.77.11.11,0,0,0-.06-.14L23.24,18a.12.12,0,0,0-.17,0l-.34.34a.07.07,0,0,1-.1,0c-.12-.07-.25-.14-.36-.22a4.09,4.09,0,0,1-1.16-1.33.09.09,0,0,1,0-.08l.31-.31a.11.11,0,0,0,0-.16l-.85-1.4c-.12-.19-.12-.19-.33-.11A1.34,1.34,0,0,0,19.36,16.19Z"/><path d="M19.36,16.19a1.34,1.34,0,0,1,.93-1.38c.21-.08.21-.08.33.11l.85,1.4a.11.11,0,0,1,0,.16l-.31.31a.09.09,0,0,0,0,.08,4.09,4.09,0,0,0,1.16,1.33c.12.08.24.14.36.22a.07.07,0,0,0,.1,0l.34-.34a.12.12,0,0,1,.17,0l1.47.92a.11.11,0,0,1,.06.14,1.71,1.71,0,0,1-.5.77,1.35,1.35,0,0,1-1,.29,2.53,2.53,0,0,1-1-.29,6,6,0,0,1-2.66-2.75A2.39,2.39,0,0,1,19.36,16.19Zm1.89.19L20.43,15a.09.09,0,0,0-.08,0,1.09,1.09,0,0,0-.78,1.1,2.38,2.38,0,0,0,.27,1,5.73,5.73,0,0,0,1.39,1.79,4.56,4.56,0,0,0,1.53,1,1.7,1.7,0,0,0,.91.09,1.18,1.18,0,0,0,.87-.79.09.09,0,0,0,0-.08l-1.27-.79a.06.06,0,0,0-.1,0l-.33.33a.12.12,0,0,1-.16,0c-.18-.1-.36-.19-.52-.31a4.47,4.47,0,0,1-1.25-1.46.12.12,0,0,1,0-.16Z"/><path class="cls-4" d="M21.25,16.38l-.35.36a.12.12,0,0,0,0,.16,4.47,4.47,0,0,0,1.25,1.46c.16.12.35.21.52.31a.12.12,0,0,0,.16,0l.33-.33a.06.06,0,0,1,.1,0l1.27.79a.09.09,0,0,1,0,.08,1.18,1.18,0,0,1-.87.79,1.7,1.7,0,0,1-.91-.09,4.56,4.56,0,0,1-1.53-1,5.73,5.73,0,0,1-1.39-1.79,2.38,2.38,0,0,1-.27-1,1.09,1.09,0,0,1,.78-1.1.09.09,0,0,1,.08,0Z"/><path class="cls-6" d="M40.71,23c-4.27-9.47,0-15.28,0-15.28h0A7.43,7.43,0,1,1,51,17.31c-1.14.73-4.9,1-5.88,1.75-3.05,2.19-1,4-2.52,4.92C41.66,24.54,40.71,23,40.71,23Z"/><path d="M45.46,10.74h-1c-.22,0-.31-.08-.31-.3q0-.7,0-1.41c0-.19.08-.27.28-.27h.8c0-.32.06-.62.11-.92a2.24,2.24,0,0,1,2-2,4.46,4.46,0,0,1,2.36.28.24.24,0,0,1,.16.24,3.16,3.16,0,0,1-.15,1c0,.18-.1.36-.16.54s-.17.23-.35.18a5.16,5.16,0,0,0-.67-.17.53.53,0,0,0-.65.42c-.05.18-.07.36-.11.57h.15l1,0c.2,0,.31.09.31.29,0,.46,0,.91,0,1.37,0,.15-.09.23-.25.23h-1c0,.06,0,.1,0,.14L48,16.2c0,.27-.06.33-.33.33H45.81c-.23,0-.3-.07-.3-.3q0-2.31,0-4.62C45.49,11.33,45.47,11,45.46,10.74Zm-.89-.48h1.07c.18,0,.25.07.26.25,0,.34,0,.67,0,1,0,1.47,0,2.94,0,4.41,0,0,0,.08,0,.13h1.56s0-.08,0-.12q0-1.93,0-3.86c0-.5,0-1,0-1.49,0-.2.08-.28.28-.29h1v-1H47.55c-.16,0-.24-.07-.23-.24a5.42,5.42,0,0,1,.05-.68,1,1,0,0,1,1.25-.95c.18,0,.35.07.54.11l.2-.94c0-.06,0-.1-.07-.13a3.87,3.87,0,0,0-1.95-.18A1.77,1.77,0,0,0,45.75,7.9a9.88,9.88,0,0,0-.1,1c0,.23-.08.3-.31.31h-.77Z"/><path class="cls-5" d="M44.32,10.53V9.13h.83c.25,0,.32-.08.34-.32a10.16,10.16,0,0,1,.1-1.06,1.88,1.88,0,0,1,1.73-1.65,4.25,4.25,0,0,1,2.09.19c.08,0,.09.07.07.13-.07.33-.14,1-.22,1.3-.21,0-.09-.09-.28-.11-.76-.08-1.22-.05-1.35.69a5.58,5.58,0,0,0-.06.71c0,.17.07.25.25.25h1v1.34h-.76c-.11,0,.1,0,0,0s-.3.1-.3.3c0,.52,0,.74,0,1.26q0,2,0,4.06s0,.08,0,.13h-2s0-.09,0-.13c0-1.55,0-3.09,0-4.64,0-.35,0-.4,0-.76,0-.19-.08-.26-.28-.27H44.32Z"/><ellipse class="cls-2" cx="56.07" cy="7.1" rx="1.09" ry="1.08" transform="translate(-0.07 0.61) rotate(-0.63)"/><ellipse class="cls-1" cx="56.26" cy="9.73" rx="0.57" ry="0.56" transform="translate(-0.1 0.62) rotate(-0.63)"/><path d="M42.61,31.33c0-.13,0-.24,0-.36s0-.05,0-.05h3.26v0q0,2,0,3.94a.06.06,0,0,1,0,.07.37.37,0,0,0-.26.31.57.57,0,0,0,0,.11s0,.05,0,0h-3.2c-.06,0-.06,0-.06-.07q0-2,0-3.91c0-.07,0-.06.06-.08Zm3,4.06V31.44H42.35v3.94ZM45.87,31l-.2,0a.89.89,0,0,0-.3.12c-.06,0-.07.09,0,.14l.19.1s.05,0,.05.09q0,1.8,0,3.61v0a.51.51,0,0,1,.23-.19s0,0,0-.06q0-1.92,0-3.85Zm-3,.42h2.42c0-.06,0-.11,0-.16a.14.14,0,0,1,.06-.13L45.5,31l.15,0H42.73l.06.05a.21.21,0,0,1,.07.18C42.85,31.26,42.85,31.32,42.85,31.39Zm-.2-.08a.34.34,0,0,0,.14-.09.08.08,0,0,0,0-.1.38.38,0,0,0-.15-.14Zm.15,0-.22.11h.22Zm2.64.11-.12-.08v.08Z"/><path class="cls-5" d="M45.87,31V31q0,1.92,0,3.85s0,0,0,.06a.51.51,0,0,0-.23.19v0q0-1.8,0-3.61s0-.07-.05-.09l-.19-.1c-.06,0-.06-.09,0-.14a.89.89,0,0,1,.3-.12Z"/><path class="cls-4" d="M42.85,31.39c0-.07,0-.13,0-.19a.21.21,0,0,0-.07-.18L42.73,31h2.92l-.15,0-.16.08a.14.14,0,0,0-.06.13c0,.05,0,.1,0,.16Z"/><path class="cls-5" d="M42.65,31.3V31a.38.38,0,0,1,.15.14.08.08,0,0,1,0,.1A.34.34,0,0,1,42.65,31.3Z"/><path class="cls-3" d="M42.81,31.28v.11h-.22Z"/><path class="cls-3" d="M45.45,31.39h-.12V31.3Z"/><circle class="cls-6" cx="43.84" cy="33.35" r="1.16"/><path d="M44.86,33.32a1,1,0,1,1-1-1A1,1,0,0,1,44.86,33.32Zm0,0a1,1,0,1,0-1,1A1,1,0,0,0,44.81,33.32Z"/><path d="M43.84,32.5a.15.15,0,0,1,.15.13.06.06,0,0,0,0,.05.38.38,0,0,1,.26.23.17.17,0,0,1,0,.18.14.14,0,0,1-.22,0L44,33a.22.22,0,0,0-.31,0,.07.07,0,0,0,0,.11l.13.05.29.09a.35.35,0,0,1,.25.34.4.4,0,0,1-.25.38h0A.13.13,0,0,0,44,34a.15.15,0,0,1-.15.09.16.16,0,0,1-.14-.13s0,0,0,0a.42.42,0,0,1-.31-.33.15.15,0,0,1,.09-.18.14.14,0,0,1,.19.08l0,.07a.2.2,0,0,0,.24.12.27.27,0,0,0,.13-.06.09.09,0,0,0,0-.16l-.15-.06-.26-.08a.34.34,0,0,1-.24-.34.36.36,0,0,1,.25-.33h0s.05,0,.06-.06A.15.15,0,0,1,43.84,32.5Zm.44,1a.62.62,0,0,0,0-.07.26.26,0,0,0-.17-.18l-.32-.1-.14-.06a.14.14,0,0,1,0-.24.3.3,0,0,1,.13-.06.26.26,0,0,1,.28.09l.06.1a.06.06,0,0,0,.07,0,.06.06,0,0,0,0-.07.27.27,0,0,0,0-.1.28.28,0,0,0-.18-.14c-.07,0-.11,0-.1-.11s0-.06-.08-.06a.07.07,0,0,0-.07.07.19.19,0,0,0,0,0s0,0,0,.05l-.14,0a.26.26,0,0,0-.16.24.25.25,0,0,0,.15.25l.14.05c.09,0,.19,0,.28.09a.18.18,0,0,1,0,.32.32.32,0,0,1-.48-.11l0-.08a.05.05,0,0,0-.07,0,.13.13,0,0,0-.05.06.08.08,0,0,0,0,0,.35.35,0,0,0,.28.25c.07,0,.07,0,.07.09a.08.08,0,0,0,.08.08.08.08,0,0,0,.08-.08c0-.07,0-.07.08-.09h0A.33.33,0,0,0,44.27,33.54Z"/><path d="M45.11,32.82l0,0,0,0v0a.87.87,0,0,0-.4-.52s-.06,0,0,0,0,0,.06,0a.91.91,0,0,1,.42.53Z"/><path d="M45.23,33.5a1,1,0,0,1-.18.52l0,0,0,0a.15.15,0,0,1,0,0l.08-.12a1,1,0,0,0,.11-.38h0l0-.05Z"/><path class="cls-7" d="M44.28,33.54a.33.33,0,0,1-.28.34h0c-.07,0-.07,0-.08.09a.08.08,0,0,1-.08.08.08.08,0,0,1-.08-.08c0-.07,0-.07-.07-.09a.35.35,0,0,1-.28-.25.08.08,0,0,1,0,0,.13.13,0,0,1,.05-.06.05.05,0,0,1,.07,0l0,.08a.32.32,0,0,0,.48.11.18.18,0,0,0,0-.32c-.09,0-.19-.06-.28-.09l-.14-.05a.25.25,0,0,1-.15-.25.26.26,0,0,1,.16-.24l.14,0s0,0,0-.05a.19.19,0,0,1,0,0,.07.07,0,0,1,.07-.07s.08,0,.08.06,0,.1.1.11a.28.28,0,0,1,.18.14.27.27,0,0,1,0,.1.06.06,0,0,1,0,.07.06.06,0,0,1-.07,0l-.06-.1a.26.26,0,0,0-.28-.09.3.3,0,0,0-.13.06.14.14,0,0,0,0,.24l.14.06.32.1a.26.26,0,0,1,.17.18A.62.62,0,0,1,44.28,33.54Z"/><rect class="cls-8" x="32.91" y="39.46" width="12.95" height="4.05"/><text class="cls-9" transform="translate(33.8 42.5)"><tspan class="cls-10">C</tspan><tspan x="1.73" y="0">ÓDIGO</tspan></text><rect x="41.08" y="31.53" width="0.38" height="1.95"/><rect x="40.44" y="32.3" width="1.63" height="0.34"/></svg>