<svg id="Capa_1" data-name="Capa 1" xmlns="http://www.w3.org/2000/svg" viewBox="0 0 80 80"><defs><style>.cls-1{fill:#f9f9f9;}.cls-2,.cls-5,.cls-6,.cls-7,.cls-8{fill:none;}.cls-12,.cls-2,.cls-6,.cls-7,.cls-8{stroke:#000;}.cls-12,.cls-2,.cls-8{stroke-miterlimit:10;}.cls-3{fill:#999;}.cls-4{fill:#eaeaea;}.cls-6,.cls-7{stroke-linecap:round;stroke-linejoin:round;}.cls-6{stroke-width:0.75px;}.cls-7{stroke-width:0.5px;}.cls-12,.cls-8{stroke-width:0.25px;}.cls-9{fill:#fff;}.cls-10{fill:#cecece;}.cls-11,.cls-12{fill:#f2f2f2;}</style></defs><title>Mesa de trabajo 1</title><path class="cls-1" d="M71,45.46l.07,0L71,45.4S71,45.44,71,45.46Z"/><path class="cls-1" d="M62.69,43.54a3.56,3.56,0,0,0,1,.57c.43.15.56.43.33.79A12.9,12.9,0,0,1,60.3,49a4.93,4.93,0,0,1-2.65.88,4.73,4.73,0,0,1-2.05-.67,12.32,12.32,0,0,1-4.11-4.37.46.46,0,0,1,.27-.73,4,4,0,0,0,.74-.36l-.18-.19a3.23,3.23,0,0,1-.62.29c-.58.18-.71.12-1-.4-.07-.11-.24-.26-.34-.24-2.51.42-4.57,1.53-5.53,4.08-.43,1.14-.68,2.34-1,3.52-.07.27-.11.55-.14.75.41.14.88.15,1.06.39s.11.73.15,1.12H70.67c0-.39-.05-.87.14-1.12s.68-.26,1.09-.4c-.18-.79-.4-1.63-.57-2.47a5.28,5.28,0,0,1,0-1c-.25-.54-.59-1.21-.86-1.91a.78.78,0,0,1,.13-.65.31.31,0,0,1,.4-.08s0,0,0-.06C69,42.72,65.87,41.59,62.69,43.54Z"/><path class="cls-2" d="M70.58,45.82s-1.41-3.45-6-3c-1.2,0-.9.55-.9.55"/><path class="cls-3" d="M30.14,44.54h1.71v.39c0,2.23,0,4.47,0,6.7,0,.64-.43,1.06-.69,1.56a.48.48,0,0,1-.39-.07,3.23,3.23,0,0,1-.66-1.85c.06-2.08,0-4.16,0-6.24Z"/><path class="cls-3" d="M31,40.51c.24.08.52.08.66.23.38.4.89.83,1,1.31.17.85-.75,1.66-1.68,1.66s-1.86-.8-1.69-1.65a3.17,3.17,0,0,1,1-1.31C30.44,40.58,30.77,40.59,31,40.51Z"/><path class="cls-4" d="M34.16,42.16l-1.75-2,2.27-1.47,1.62-1c.43-.28.44-.28,1,0Z"/><path class="cls-4" d="M24.71,37.7a.73.73,0,0,1,1,0c1.22.89,2.46,1.75,3.73,2.66l-1.61,1.79Z"/><path d="M67.1,27.6l.21,0a1.48,1.48,0,0,1,2,1.32,2.72,2.72,0,0,1-.75,2.36,5.8,5.8,0,0,1-2.24,1.49.65.65,0,0,0-.35.38,5.52,5.52,0,0,1-1.42,2.53,20.57,20.57,0,0,1-4.28,3.65,9.28,9.28,0,0,1-2.28,1,2.75,2.75,0,0,1-1.54-.21,12.47,12.47,0,0,1-4-2.69c-.54-.51-1.08-1-1.6-1.54a5.85,5.85,0,0,1-1.58-2.72.65.65,0,0,0-.36-.36,5.77,5.77,0,0,1-2.2-1.47A2.75,2.75,0,0,1,46,29a1.49,1.49,0,0,1,2-1.39,1.8,1.8,0,0,0,.24,0,3.25,3.25,0,0,0-.06-.51,3.9,3.9,0,0,1,0-2,11.7,11.7,0,0,1,2.42-5.33,3.67,3.67,0,0,1,4.08-1.27c.38.11.77.19,1.14.31a6.1,6.1,0,0,0,3.74,0,14.19,14.19,0,0,1,2.27-.47,2.9,2.9,0,0,1,2.32.73c.61.53,1.17,1.12,1.74,1.69a1.16,1.16,0,0,1,.23.48A18.69,18.69,0,0,1,67.1,27.6Zm-1-1,.13,0c-.22-1.25-.48-2.49-.64-3.75A4.31,4.31,0,0,0,63.78,20l-.3-.22a2.24,2.24,0,0,0-1.74-.44,12.17,12.17,0,0,0-1.79.4,7,7,0,0,1-4.46,0c-.41-.14-.84-.23-1.26-.33a2.43,2.43,0,0,0-2.58.73,8.7,8.7,0,0,0-2.47,7.09c.13,1-.53,1.59-1.49,1.3-.4-.12-.61,0-.73.42a1.65,1.65,0,0,0,.37,1.55,4.2,4.2,0,0,0,2,1.36,1.42,1.42,0,0,1,.92,1,5.86,5.86,0,0,0,.94,1.86,23,23,0,0,0,4.34,3.83,3.43,3.43,0,0,0,4.27,0,25.37,25.37,0,0,0,4.32-3.79,3.94,3.94,0,0,0,1-1.94,1.18,1.18,0,0,1,.87-.95,4.35,4.35,0,0,0,2-1.35,1.74,1.74,0,0,0,.43-1.38c-.07-.57-.32-.74-.86-.57a1.07,1.07,0,0,1-1.43-1.13C66.14,27.14,66.13,26.89,66.13,26.65Z"/><path class="cls-5" d="M31.69,40.74c-.14-.15-.42-.15-.66-.23-.27.08-.59.08-.75.24a3.17,3.17,0,0,0-1,1.31c-.17.86.76,1.65,1.69,1.65s1.86-.81,1.68-1.66C32.58,41.56,32.07,41.14,31.69,40.74Z"/><path class="cls-5" d="M33.52,42.77a4.9,4.9,0,0,1-.51.82c-.24.26-.16.53-.16.87,0,1.81.14,3.61.14,5.42v.43s-.07,0,0,0c2.22-3.89,4.37-7.78,6.62-11.7L38.16,38l-3.9,5.55Z"/><path class="cls-5" d="M32.41,40.21l1.75,2,3.12-4.48c-.55-.27-.55-.27-1,0l-1.62,1Z"/><path class="cls-5" d="M31.81,35.78a7.23,7.23,0,0,0,2.6-1.43,15.92,15.92,0,0,0,4-4.85c.1-.19.28-.46.44-.47a1.44,1.44,0,0,0,1.1-.74,8.58,8.58,0,0,0,1.66-5.43,4.66,4.66,0,0,0-.25-.94c-.42.38-.73.7-1.07,1-.55.46-.79.37-1-.32a9.47,9.47,0,0,0-3.79-5.17,3.41,3.41,0,0,0,.05.35c.3,1,.61,2,.89,3a.61.61,0,0,1-.15.54.66.66,0,0,1-.56-.06c-.33-.19-.59-.5-.93-.66-1.32-.65-2.63-1.3-4-1.87a20.89,20.89,0,0,0-5.58-1.6c-.78-.09-.79-.08-1,.68,0,.1,0,.21-.07.31A4.94,4.94,0,0,1,20.88,22a.65.65,0,0,0-.36.46,9.63,9.63,0,0,0,0,2,8,8,0,0,0,1.68,4A3.81,3.81,0,0,0,23,29a2.15,2.15,0,0,1,.58.43c.59.86,1.09,1.78,1.72,2.6a11.06,11.06,0,0,0,4.22,3.53A3.31,3.31,0,0,0,31.81,35.78Z"/><path class="cls-5" d="M22.69,19.51a5.73,5.73,0,0,0,.8-2.47c0-.4.25-.66.62-.67a9.43,9.43,0,0,1,2.09.08,32.21,32.21,0,0,1,8.62,3.2l.4.19-.15-.5c-.21-.78-.44-1.56-.63-2.35a.67.67,0,0,1,.12-.57.77.77,0,0,1,.63-.07,3.58,3.58,0,0,1,.88.48,10.34,10.34,0,0,1,3.74,4.72L40,22c.21-.22.37-.36.5-.53a9.43,9.43,0,0,0,1.43-10.09A8.5,8.5,0,0,0,31.89,6a16.92,16.92,0,0,0-6.18,2.61,5.65,5.65,0,0,1-3.48,1.1A2.58,2.58,0,0,0,19.49,12a9.13,9.13,0,0,0,.09,4c.37,1.68.82,3.35,1.25,5.07A3.63,3.63,0,0,0,22.69,19.51Z"/><path class="cls-5" d="M70.64,53s-.05-.67.14-.92.68-.16,1.1-.29c-.19-.8-.4-1.59-.57-2.44a5.06,5.06,0,0,1,0-1c-.25-.54-.59-1.21-.87-1.91a.78.78,0,0,1,.13-.65c.18-.23.44-.1.65.07s.6.48.91.71A14.43,14.43,0,0,1,75,48.93l-.24-.47c-.76-1.55-1.56-3.08-2.26-4.65a10.05,10.05,0,0,1-.87-5.3c.44-3.8.9-7.59,1.25-11.4A14.86,14.86,0,0,0,69.76,16a8,8,0,0,0-1.69-1.67c-1.26-.84-2.61-1.55-3.92-2.32a11.76,11.76,0,0,0-6.53-1.5,5,5,0,0,0-4,2.06.93.93,0,0,1-.33.3,9.63,9.63,0,0,0-3.51,2.86,10.08,10.08,0,0,0-2.57,7c.05,1.3.05,2.6.09,3.9a.56.56,0,0,1-.41.63,1.64,1.64,0,0,0-1.08,1.21,3,3,0,0,0,.85,3,.9.9,0,0,1,.29.77,4,4,0,0,0,.69,2.64c.24.37.42.7.17,1.13a1.84,1.84,0,0,0-.1.55c.1-.09.15-.13.2-.19.2-.23.4-.44.73-.25s.22.46.19.76a8.36,8.36,0,0,0,0,1.21,2.15,2.15,0,0,1,.63-.39c.13,0,.33.15.43.29.27.36.48.77.77,1.1a9.54,9.54,0,0,0,2.72,2,.73.73,0,0,1,.33.31,6.22,6.22,0,0,0,.5-1.63c0-.22.07-.44.09-.66.06-.61.35-.77.88-.49s.87.45,1.33.64a2.84,2.84,0,0,0,2.23,0c.44-.18.87-.4,1.29-.62s.81-.15.92.48a12,12,0,0,0,.56,2.2,3.32,3.32,0,0,0,2.08,2c.44.15.56.43.33.79a13,13,0,0,1-3.76,4.16,5,5,0,0,1-2.66.88,4.76,4.76,0,0,1-2.06-.67,12.31,12.31,0,0,1-4.09-4.34c-.43.11-.59,0-.86-.45-.07-.11-.24-.26-.35-.24a8.32,8.32,0,0,0-3.18.93A17.41,17.41,0,0,1,49.29,53Z"/><path class="cls-5" d="M46.25,45a6.17,6.17,0,0,0-1.63,2.48c-.43,1.14-.68,2.39-1,3.58-.07.27-.11.57-.14.77.41.14.88,0,1.07.27s.13.86.15.86h3.74A16.6,16.6,0,0,0,46.25,45Z"/><path class="cls-5" d="M55.63,47.47a3.31,3.31,0,0,0,4.07,0A11.1,11.1,0,0,0,62.24,45c.21-.28.41-.57.63-.88A4.07,4.07,0,0,1,61,42.31c-.39-.78-.66-1.61-1-2.46a4.36,4.36,0,0,1-4.72-.07,5.39,5.39,0,0,1-2.73,4.29A11.48,11.48,0,0,0,55.63,47.47Z"/><path class="cls-5" d="M42.59,51.32c0-.08,0-.16.05-.24.35-1.28.61-2.59,1.08-3.82a7,7,0,0,1,2-2.91C44.26,42,42.3,39.85,40.24,39c-2.69,4.7-5.38,10-8.09,14H43.69s0,0,0-.08C42.63,52.66,42.37,52.38,42.59,51.32Z"/><path class="cls-5" d="M30.21,39.72a3,3,0,0,0,2.24-.55,21.28,21.28,0,0,1,1.92-1.26l1.19-.77-1.19-1.7a5,5,0,0,1-6.75,0L26.4,37.16l3.47,2.45A.7.7,0,0,0,30.21,39.72Z"/><path class="cls-5" d="M32,45H30v0c0,2.08.11,4.16,0,6.24a3.26,3.26,0,0,0,.69,1.85.52.52,0,0,0,.4.07c.26-.5.78-.92.78-1.56,0-2.23.08-4.47.08-6.7Z"/><path class="cls-5" d="M13.59,53H29.84c-2.72-4-5.4-9.45-8.1-14.17C17,41.21,13,49,13.59,53Z"/><path class="cls-5" d="M29.26,44.11a.48.48,0,0,0-.07-.25c-.24-.35-.48-.7-.75-1.07l-.7.75L23.86,38l-1.38.66,6.69,11.7C29.26,48.24,29.26,46.18,29.26,44.11Z"/><path class="cls-5" d="M29.44,40.37c-1.27-.9-2.52-1.76-3.73-2.66a.73.73,0,0,0-1,0l3.12,4.47Z"/><path d="M32.14,53c2.72-4,5.4-9.32,8.09-14a13.43,13.43,0,0,1,5.52,5.3,6.51,6.51,0,0,1,.72-.51l-.26-.39a17.92,17.92,0,0,0-9.48-6.82,2.17,2.17,0,0,1-1.43-1.36.44.44,0,0,1,.12-.59A17.19,17.19,0,0,0,39,30.14c.06-.11.16-.26.27-.29a3,3,0,0,0,1.59-1.39,9.89,9.89,0,0,0,1.53-4.24,3.33,3.33,0,0,0-.6-2.95A10.61,10.61,0,0,0,43,11.83c-1.8-5.2-6.14-7.73-11.49-6.66a19,19,0,0,0-6.65,2.9,3.24,3.24,0,0,1-2.33.71,2.49,2.49,0,0,0-.59,0,3.51,3.51,0,0,0-3.32,2.88,8.66,8.66,0,0,0,0,3.83C19,17.37,19.55,19.18,20,21a1.21,1.21,0,0,1-.06.58,5.57,5.57,0,0,0-.34,1,9.11,9.11,0,0,0,2,6.42,4.84,4.84,0,0,0,1.06.77c.11.08.25.14.3.25a17.93,17.93,0,0,0,3.67,4.62.44.44,0,0,1,.1.39,2.15,2.15,0,0,1-1.43,1.47,18.17,18.17,0,0,0-8.52,5.54,17.14,17.14,0,0,0-4.08,10.68c0,.44,0,1.24,0,1.24H44c-.17,0-.26,0-.33-1ZM31,43.71c-.93,0-1.86-.8-1.69-1.65a3.17,3.17,0,0,1,1-1.31c.16-.16.48-.16.75-.24.24.08.52.08.66.23.38.4.89.83,1,1.31C32.86,42.9,31.93,43.71,31,43.71Zm8.51-5.08c-2.24,3.92-4.33,7.81-6.55,11.7,0,0,0,0,0,0v-.43c0-1.81-.13-3.61-.14-5.42a1.09,1.09,0,0,1,.22-.87,4.89,4.89,0,0,0,.47-.82l.71.77L38.13,38Zm-3.22-.94c.43-.28.44-.28,1,0l-3.12,4.48-1.75-2,2.27-1.47ZM19.59,16a9.13,9.13,0,0,1-.09-4,2.58,2.58,0,0,1,2.75-2.28,5.65,5.65,0,0,0,3.48-1.1A16.92,16.92,0,0,1,31.89,6a8.5,8.5,0,0,1,10,5.39A9.43,9.43,0,0,1,40.5,21.45c-.13.17-.29.31-.5.53l-.18-.45a10.34,10.34,0,0,0-3.74-4.72,3.58,3.58,0,0,0-.88-.48.77.77,0,0,0-.63.07.67.67,0,0,0-.12.57c.18.79.41,1.57.63,2.35l.15.5-.4-.19a32.21,32.21,0,0,0-8.62-3.2,9.43,9.43,0,0,0-2.09-.08c-.37,0-.58.27-.62.67a5.73,5.73,0,0,1-.8,2.47,3.63,3.63,0,0,1-1.86,1.55C20.4,19.33,20,17.67,19.59,16ZM25.3,32c-.63-.82-1.13-1.74-1.72-2.6A2.15,2.15,0,0,0,23,29a3.81,3.81,0,0,1-.8-.56,8,8,0,0,1-1.68-4,9.63,9.63,0,0,1,0-2,.65.65,0,0,1,.36-.46,4.94,4.94,0,0,0,3.29-3.81c0-.1,0-.21.07-.31.16-.76.17-.77,1-.68a20.89,20.89,0,0,1,5.58,1.6c1.35.56,2.67,1.22,4,1.87.34.17.6.47.93.66a.66.66,0,0,0,.56.06.61.61,0,0,0,.15-.54c-.27-1-.59-2-.89-3a3.41,3.41,0,0,1-.05-.35,9.47,9.47,0,0,1,3.79,5.17c.19.68.44.77,1,.32.34-.28.65-.6,1.07-1a4.66,4.66,0,0,1,.25.94,8.58,8.58,0,0,1-1.66,5.43,1.44,1.44,0,0,1-1.1.74c-.16,0-.34.28-.44.47a15.92,15.92,0,0,1-4,4.85,7.23,7.23,0,0,1-2.6,1.43,3.31,3.31,0,0,1-2.28-.23A11.06,11.06,0,0,1,25.3,32Zm2.32,3.42a5,5,0,0,0,6.75,0l1.19,1.7-1.19.77a21.28,21.28,0,0,0-1.92,1.26,3,3,0,0,1-2.24.55.7.7,0,0,1-.34-.11L26.4,37.16Zm-1.91,2.27c1.22.89,2.46,1.75,3.73,2.66l-1.61,1.79L24.71,37.7A.73.73,0,0,1,25.71,37.72ZM23.86,38l3.88,5.56.7-.75c.26.37.51.72.75,1.07a.48.48,0,0,1,.07.25c0,2.06,0,4.13-.09,6.23l-6.69-11.7ZM13.59,53C13,49,17,41.21,21.74,38.83,24.44,43.55,27.12,49,29.84,53Zm17.57.2a.48.48,0,0,1-.39-.07A3.3,3.3,0,0,1,30,51.28c.06-2.08,0-4.16,0-6.24v0h2v-.07c0,2.23-.09,4.47-.07,6.7C31.94,52.28,31.43,52.69,31.16,53.2Z"/><path d="M75.67,48.09C74.84,46.41,74,44.74,73.23,43a8.93,8.93,0,0,1-.62-4.68c.44-3.78.9-7.56,1.23-11.36a15.65,15.65,0,0,0-3.49-11.77,8.33,8.33,0,0,0-1.78-1.69c-1.38-.91-2.85-1.68-4.28-2.52a8.64,8.64,0,0,0-2.91-1.06c-.85-.15-1.69-.31-2.55-.39a6.62,6.62,0,0,0-5.48,1.88A7.31,7.31,0,0,1,52,12.48a13.11,13.11,0,0,0-4.9,5.71,7.92,7.92,0,0,0-.81,3.28c0,1.56,0,3.13,0,4.69a.63.63,0,0,1-.23.45,2.8,2.8,0,0,0-1.17,1.6A4,4,0,0,0,45.74,32a1,1,0,0,1,.24.53,5.53,5.53,0,0,0,.8,2.88.57.57,0,0,1,.12.3,2.6,2.6,0,0,1-1,2.13.47.47,0,0,0-.23.66.46.46,0,0,0,.66.21c.51-.22,1-.46,1.54-.71a4.16,4.16,0,0,0,1.66,2.58c.49.38.67.37,1-.06l2.12,1.43a2.44,2.44,0,0,1-1.33,1.26,1.09,1.09,0,0,0-1.12-.68,9.51,9.51,0,0,0-3.76,1.32c.18.27.36.55.52.83a8.5,8.5,0,0,1,3.18-1.14c.1,0,.28.13.35.24.27.47.43.56.86.45l0-.06a.46.46,0,0,1,.28-.73,3.63,3.63,0,0,0,2.13-1.92.73.73,0,0,0-.33-.31,9.54,9.54,0,0,1-2.72-2c-.3-.33-.5-.75-.77-1.1-.1-.14-.31-.31-.43-.29a2.15,2.15,0,0,0-.63.39,8.36,8.36,0,0,1,0-1.21c0-.3.13-.58-.19-.76s-.54,0-.73.25c0,.05-.1.09-.2.19a1.84,1.84,0,0,1,.1-.55c.25-.44.08-.76-.17-1.13A4,4,0,0,1,47,32.31a.9.9,0,0,0-.29-.77,3,3,0,0,1-.85-3,1.64,1.64,0,0,1,1.08-1.21.56.56,0,0,0,.41-.63c0-1.3,0-2.6-.09-3.9a10.08,10.08,0,0,1,2.57-7,9.63,9.63,0,0,1,3.51-2.86.93.93,0,0,0,.33-.3,5,5,0,0,1,4-2.06A11.76,11.76,0,0,1,64.15,12c1.31.77,2.66,1.48,3.92,2.32A8,8,0,0,1,69.76,16a14.86,14.86,0,0,1,3.12,11.09c-.35,3.81-.81,7.6-1.25,11.4a10.05,10.05,0,0,0,.87,5.3c.7,1.58,1.5,3.1,2.26,4.65l.24.47a14.42,14.42,0,0,0-2.86-2.34q-.46-.35-.91-.71c-.21-.17-.47-.29-.65-.07a.79.79,0,0,0-.13.66c.28.7.62,1.38.87,1.93a5.34,5.34,0,0,0,0,1c.17.85.38,1.69.57,2.49-.42.14-.9-.06-1.1.19s-.11.92-.14.92H49.29a4.09,4.09,0,0,0,0,.69,1.72,1.72,0,0,1,0,.31H70.22c.14,0,.27.22.41.21a1,1,0,0,0,1-.9c0-.12,0-.19,0-.31,1-.22,1.28-.63,1.09-1.64-.08-.42-.17-.82-.26-1.26l.17,0c.3.14.61.27.83-.08s0-.55-.24-.78c-.35-.41-.67-.84-1-1.26l.09-.07a5.25,5.25,0,0,1,2.45,2.86,2,2,0,0,1-.21,1.87c-.19.28-.25.55,0,.76s.54.07.74-.18a4.13,4.13,0,0,0,.94-2.13A5.18,5.18,0,0,0,75.67,48.09Z"/><path d="M43.47,51.89c0-.2.07-.49.14-.76.32-1.18.57-2.4,1-3.54a5.91,5.91,0,0,1,1.63-2.41c-.16-.29-.33-.57-.5-.84a7,7,0,0,0-2,2.91c-.47,1.23-.73,2.55-1.08,3.82,0,.08,0,.16-.05.24-.22,1.06,0,1.34,1.06,1.61,0,.08,0,.08,0,.08h1s0-.62-.15-.85S43.88,52,43.47,51.89Z"/><path d="M46.25,45.18a5.88,5.88,0,0,1,.75-.56c-.16-.28-.34-.55-.52-.83a6.81,6.81,0,0,0-.72.54C45.93,44.61,46.09,44.89,46.25,45.18Z"/><path d="M49.31,53.69a4.09,4.09,0,0,1,0-.69H43.69c.06,1,.16,1,.33,1h5.26A1.72,1.72,0,0,0,49.31,53.69Z"/><path d="M55.48,48.51a4.76,4.76,0,0,0,2.06.67,5,5,0,0,0,2.66-.88A13,13,0,0,0,64,44.14c.23-.36.1-.64-.33-.79a3.32,3.32,0,0,1-2.08-2,12,12,0,0,1-.56-2.2c-.11-.62-.35-.78-.92-.48s-.85.44-1.29.62a2.84,2.84,0,0,1-2.23,0c-.45-.19-.89-.41-1.33-.64s-.82-.12-.88.49c0,.22-.05.44-.09.66a6.22,6.22,0,0,1-.5,1.63.53.53,0,0,1,0,.43,3.46,3.46,0,0,1-2.2,2.24l-.16,0A12.31,12.31,0,0,0,55.48,48.51Zm-.23-8.73a4.36,4.36,0,0,0,4.72.07c.33.84.6,1.68,1,2.46a4.07,4.07,0,0,0,1.91,1.79c-.22.31-.42.6-.63.88a11.1,11.1,0,0,1-2.54,2.51,3.31,3.31,0,0,1-4.07,0,11.48,11.48,0,0,1-3.11-3.39A5.39,5.39,0,0,0,55.25,39.78Z"/><path d="M53.75,41.89a.53.53,0,0,0,0-.43,3.63,3.63,0,0,1-2.13,1.92.46.46,0,0,0-.28.73l0,.06.16,0A3.46,3.46,0,0,0,53.75,41.89Z"/><path class="cls-6" d="M27.16,25.53s-.3-1.91,1.22-1.8,1.12,1.8,1.12,1.8"/><path class="cls-6" d="M33.16,25.53s-.3-1.91,1.22-1.8,1.12,1.8,1.12,1.8"/><path d="M54.44,28.68a1.25,1.25,0,0,1-1.51.91c-.67-.17-.84-1.05-1.15-1.62.43-.34,1.09-1,1.76-.8A1.25,1.25,0,0,1,54.44,28.68Z"/><line class="cls-7" x1="51.43" y1="27.64" x2="50.93" y2="27.14"/><line class="cls-7" x1="51.46" y1="28.29" x2="50.89" y2="28.72"/><path d="M59.94,28.68a1.25,1.25,0,0,0,1.51.91c.67-.17.84-1.05,1.15-1.62-.43-.34-1.09-1-1.76-.8A1.25,1.25,0,0,0,59.94,28.68Z"/><line class="cls-7" x1="62.95" y1="27.64" x2="63.45" y2="27.14"/><line class="cls-7" x1="62.92" y1="28.29" x2="63.49" y2="28.72"/><path class="cls-7" d="M56.54,31.46a1.24,1.24,0,0,0,2,0"/><path class="cls-7" d="M55.29,33.94a2.12,2.12,0,0,0,1.94,1.54,2.08,2.08,0,0,0,2.35-1.54"/><path class="cls-7" d="M27.29,28.85a3.65,3.65,0,0,0,3.28,2.71,3.56,3.56,0,0,0,4-2.71"/><rect class="cls-8" x="17.21" y="62.47" width="26.21" height="1.57" rx="0.75" ry="0.75" transform="translate(60.62 126.52) rotate(-180)"/><path d="M18,62.14h24.7a1.09,1.09,0,0,1,1.09,1.09v.07a1.09,1.09,0,0,1-1.09,1.09H18a1.09,1.09,0,0,1-1.09-1.09v-.07A1.09,1.09,0,0,1,18,62.14Zm25.12,1.16v-.07a.42.42,0,0,0-.42-.42H18a.42.42,0,0,0-.42.42v.07a.42.42,0,0,0,.42.42H42.66A.42.42,0,0,0,43.08,63.29Z"/><path class="cls-5" d="M21.62,57.06H38.83a1.14,1.14,0,0,1,1.23,1l1.62,4.45H19l1.23-4.31A1.29,1.29,0,0,1,21.62,57.06Z"/><path d="M21.62,56.78H38.83A1.46,1.46,0,0,1,40.4,58l1.74,4.77H18.57l1.32-4.62A1.62,1.62,0,0,1,21.62,56.78Zm19.61,5.47-1.5-4.17a.83.83,0,0,0-.89-.74H21.62a1,1,0,0,0-1.06.88v.06l-1.13,4Z"/><path d="M41.55,61.91c-2.21-1.13-2.55-3.11-3.32-5-.1-.25-.59-.14-.48.11.82,2,1.21,4,3.55,5.24.28.14.53-.22.25-.36Z"/><path d="M19.36,62.61c2.1-1.21,2.46-3.27,3.2-5.29.09-.26-.34-.37-.44-.11-.69,1.9-1,3.9-3,5-.25.14,0,.51.23.36Z"/><path class="cls-5" d="M19.39,64l22.3.22L40.4,68.77A1.18,1.18,0,0,1,39.29,70H21.6a1.18,1.18,0,0,1-1.1-1.25Z"/><path d="M41.36,64.19l-21.55.19,1,4.39a.85.85,0,0,0,.77.91H39.29a.85.85,0,0,0,.77-.91v-.09ZM19,63.7H42.13l-1.4,5.12a1.51,1.51,0,0,1-1.44,1.53H21.61a1.51,1.51,0,0,1-1.44-1.54Z"/><path d="M39.76,69.09c-1.19-1.15-.79-3.46.22-4.58.22-.24-.14-.6-.36-.36-1.19,1.33-1.62,3.94-.22,5.29.23.22.59-.13.36-.36Z"/><path d="M21.78,69.44c1.4-1.35,1-4-.22-5.29-.22-.24-.57.11-.36.36,1,1.12,1.41,3.43.22,4.58-.23.22.12.58.36.36Z"/><rect class="cls-9" x="7.65" y="46.02" width="24.92" height="30.76"/><path d="M32.49,45.54c.44.09.44.08.44.59q0,15.26,0,30.52c0,.52,0,.52-.45.52h-25c-.26,0-.37-.08-.36-.38a4.47,4.47,0,0,0,0-.88,2.89,2.89,0,0,0-2-2.39A.46.46,0,0,1,4.79,73q0-22.88,0-30.75V41.9H30.22c.27,0,.35.1.35.4,0,.91,0,1.83,0,2.82C31.21,45.25,31.85,45.41,32.49,45.54Zm.08,31.23V46h-25V76.77ZM5.13,42.72q0,7.52,0,30c0,.25,0,.38.27.47A4,4,0,0,1,7.17,74.7v-.36q0-21.58,0-28.17c0-.37.08-.54.41-.68A7.18,7.18,0,0,0,9,44.68c.48-.35.46-.73,0-1.08a6.93,6.93,0,0,0-2.33-.92c-.5-.13-1-.23-1.55-.35Zm23.52,1.37a1.64,1.64,0,0,1,.52-1.38c.13-.14.28-.26.45-.42H6.82c.42.14.79.23,1.14.38a10.75,10.75,0,0,1,1.28.65,1.06,1.06,0,0,1,.49,1c0,.4,0,.8,0,1.23H28.66C28.66,45.07,28.69,44.57,28.65,44.09Zm1.56-1.73a2.94,2.94,0,0,0-1.14,1.1.66.66,0,0,0,.07.75,2.62,2.62,0,0,0,1.07.71ZM29,45.58h1.73L29,44.74Zm-19.64,0v-.66l-1,.66Z"/><path class="cls-10" d="M5.13,42.32v.4q0,7.52,0,30c0,.25,0,.38.27.47A4,4,0,0,1,7.17,74.7v-.36q0-21.58,0-28.17c0-.37.08-.54.41-.68A7.18,7.18,0,0,0,9,44.68c.48-.35.46-.73,0-1.08a6.93,6.93,0,0,0-2.33-.92C6.18,42.54,5.67,42.44,5.13,42.32Z"/><path class="cls-11" d="M28.66,45.58c0-.51,0-1,0-1.49a1.64,1.64,0,0,1,.52-1.38c.13-.14.28-.26.45-.42H6.82c.42.14.79.23,1.14.38a10.75,10.75,0,0,1,1.28.65,1.06,1.06,0,0,1,.49,1c0,.4,0,.8,0,1.23Z"/><path class="cls-10" d="M30.2,44.92V42.36a2.94,2.94,0,0,0-1.14,1.1.66.66,0,0,0,.07.75A2.62,2.62,0,0,0,30.2,44.92Z"/><path class="cls-9" d="M29,44.74v.84h1.73Z"/><path class="cls-9" d="M8.4,45.59h1v-.66Z"/><path d="M14.2,51.54h-.52s0,0,0,.05c0,1.47-.05,2.94,0,4.41a5,5,0,0,0,1.78,3.52,7.1,7.1,0,0,0,4.88,1.84,7.11,7.11,0,0,0,5-1.81,5.28,5.28,0,0,0,1.84-4.29c0-1.12,0-2.24,0-3.36v-.36h-.54c0,.1,0,.22,0,.33,0,1.12,0,2.24,0,3.36a4.7,4.7,0,0,1-1.73,3.92A6.74,6.74,0,0,1,20,60.74a6.65,6.65,0,0,1-3.73-1.28,4.79,4.79,0,0,1-2-3.12,5.49,5.49,0,0,1-.07-.91c0-1.18,0-2.35,0-3.53C14.2,51.78,14.2,51.67,14.2,51.54Z"/><path d="M26.91,50a.57.57,0,0,0-.55.58.54.54,0,1,0,.55-.58Z"/><path d="M13.91,51.16a.58.58,0,0,0,.52-.61.57.57,0,0,0-.56-.59.58.58,0,0,0-.51.62A.57.57,0,0,0,13.91,51.16Z"/><rect class="cls-12" x="45.21" y="55.47" width="26.21" height="1.57" rx="0.75" ry="0.75" transform="translate(116.62 112.52) rotate(-180)"/><path d="M46,55.14h24.7a1.09,1.09,0,0,1,1.09,1.09v.07a1.09,1.09,0,0,1-1.09,1.09H46a1.09,1.09,0,0,1-1.09-1.09v-.07A1.09,1.09,0,0,1,46,55.14Zm25.12,1.16v-.07a.42.42,0,0,0-.42-.42H46a.42.42,0,0,0-.42.42v.07a.42.42,0,0,0,.42.42H70.66A.42.42,0,0,0,71.08,56.29Z"/><rect class="cls-12" x="44.21" y="68.47" width="26.21" height="1.57" rx="0.75" ry="0.75" transform="translate(114.62 138.52) rotate(-180)"/><path d="M45,68.14h24.7a1.09,1.09,0,0,1,1.09,1.09v.07a1.09,1.09,0,0,1-1.09,1.09H45a1.09,1.09,0,0,1-1.09-1.09v-.07A1.09,1.09,0,0,1,45,68.14Zm25.12,1.16v-.07a.42.42,0,0,0-.42-.42H45a.42.42,0,0,0-.42.42v.07a.42.42,0,0,0,.42.42H69.66A.42.42,0,0,0,70.08,69.29Z"/><path class="cls-9" d="M48.62,63.06H65.83a1.14,1.14,0,0,1,1.23,1l1.62,4.45H46l1.23-4.31A1.29,1.29,0,0,1,48.62,63.06Z"/><path d="M48.62,62.78H65.83A1.46,1.46,0,0,1,67.4,64l1.74,4.77H45.57l1.32-4.62A1.62,1.62,0,0,1,48.62,62.78Zm19.61,5.47-1.5-4.17a.83.83,0,0,0-.89-.74H48.62a1,1,0,0,0-1.06.88v.06l-1.13,4Z"/><path d="M68.55,67.91c-2.21-1.13-2.55-3.11-3.32-5-.1-.25-.59-.14-.48.11.82,2,1.21,4,3.55,5.24.28.14.53-.22.25-.36Z"/><path d="M46.36,68.61c2.1-1.21,2.46-3.27,3.2-5.29.09-.26-.34-.37-.44-.11-.69,1.9-1,3.9-3,5-.25.14,0,.51.23.36Z"/><path class="cls-9" d="M46.39,70l22.3.22L67.4,74.77A1.18,1.18,0,0,1,66.29,76H48.6a1.18,1.18,0,0,1-1.1-1.25Z"/><path d="M68.36,70.19l-21.55.19,1,4.39a.85.85,0,0,0,.77.91H66.29a.85.85,0,0,0,.77-.91v-.09ZM46,69.7H69.13l-1.4,5.12a1.51,1.51,0,0,1-1.44,1.53H48.61a1.51,1.51,0,0,1-1.44-1.54Z"/><path d="M66.76,75.09c-1.19-1.15-.79-3.46.22-4.58.22-.24-.14-.6-.36-.36-1.19,1.33-1.62,3.94-.22,5.29.23.22.59-.13.36-.36Z"/><path d="M48.78,75.44c1.4-1.35,1-4-.22-5.29-.22-.24-.57.11-.36.36,1,1.12,1.41,3.43.22,4.58-.23.22.12.58.36.36Z"/><path class="cls-9" d="M49.62,50.06H66.83a1.14,1.14,0,0,1,1.23,1l1.62,4.45H47l1.23-4.31A1.29,1.29,0,0,1,49.62,50.06Z"/><path d="M49.62,49.78H66.83A1.46,1.46,0,0,1,68.4,51l1.74,4.77H46.57l1.32-4.62A1.62,1.62,0,0,1,49.62,49.78Zm19.61,5.47-1.5-4.17a.83.83,0,0,0-.89-.74H49.62a1,1,0,0,0-1.06.88v.06l-1.13,4Z"/><path d="M69.55,54.91c-2.21-1.13-2.55-3.11-3.32-5-.1-.25-.59-.14-.48.11.82,2,1.21,4,3.55,5.24.28.14.53-.22.25-.36Z"/><path d="M47.36,55.61c2.1-1.21,2.46-3.27,3.2-5.29.09-.26-.34-.37-.44-.11-.69,1.9-1,3.9-3,5-.25.14,0,.51.23.36Z"/><path class="cls-9" d="M47.39,57l22.3.22L68.4,61.77A1.18,1.18,0,0,1,67.29,63H49.6a1.18,1.18,0,0,1-1.1-1.25Z"/><path d="M69.36,57.19l-21.55.19,1,4.39a.85.85,0,0,0,.77.91H67.29a.85.85,0,0,0,.77-.91v-.09ZM47,56.7H70.13l-1.4,5.12a1.51,1.51,0,0,1-1.44,1.53H49.61a1.51,1.51,0,0,1-1.44-1.54Z"/><path d="M67.76,62.09c-1.19-1.15-.79-3.46.22-4.58.22-.24-.14-.6-.36-.36-1.19,1.33-1.62,3.94-.22,5.29.23.22.59-.13.36-.36Z"/><path d="M49.78,62.44c1.4-1.35,1-4-.22-5.29-.22-.24-.57.11-.36.36,1,1.12,1.41,3.43.22,4.58-.23.22.12.58.36.36Z"/></svg>