<svg id="Capa_1" data-name="Capa 1" xmlns="http://www.w3.org/2000/svg" viewBox="0 0 80 80"><defs><style>.cls-1{fill:#d7d7d7;}.cls-2{fill:#cecece;}.cls-3{fill:#f2f2f2;}.cls-4{fill:#fff;}</style></defs><title>Mesa de trabajo 1</title><path d="M49.66,23.47h0C49.77,23.47,49.72,23.47,49.66,23.47Z"/><path d="M21.51,46.72c0-1.23,0-1.45,0-2.68a6.14,6.14,0,0,1,4.65-5.83c2.31-.68,4.64-1.31,7-2,.11,0,.23,0,.35-.06a5.3,5.3,0,0,0,1,2.64l.71,0a3.3,3.3,0,0,1-1-2.44c0-.38.17-.51.64-.49,0,.19,0,.39,0,.58A2.75,2.75,0,0,0,36,38.72l1-.09a5.26,5.26,0,0,1-.54-.3,2.19,2.19,0,0,1-1-1.82c0-.69,0-1.37,0-2.17A7,7,0,0,0,40,36.07a6.82,6.82,0,0,0,4.12-1.37c-.11-.16-.21-.33-.29-.5l-.07.06a6.23,6.23,0,0,1-7.52,0c-.76-.57-.74-.45-1.48-1-1.44-1.16-3-3.34-3-5.08a53.41,53.41,0,0,0-.84-5.38c-.21-.82-.16-.48-.65-.64a3.28,3.28,0,0,0-.88,0,1.87,1.87,0,0,0-1.5,2.06c0,.27,0,.54,0,.8a2.65,2.65,0,0,0,2.67,2.54l.53,0c0,.1,0,.18,0,.25a9.63,9.63,0,0,0,3.63,6.13c.67.49.15.45,0,1.28l-.67.2c-2.65.74-5.31,1.47-7.95,2.23a6.91,6.91,0,0,0-5.23,6.43c0,1.24,0,1.49,0,2.73A1.21,1.21,0,0,1,21.51,46.72ZM31,26v.57a.69.69,0,0,1,.1.32H31v0a2.08,2.08,0,0,1-2.47-2c0-.38,0-.76,0-1.13a1.23,1.23,0,0,1,1.2-1.11c.65,0,.21.19.52.51a.4.4,0,0,0-.23.1C30.3,24.16,31.92,25.08,31,26Z"/><path d="M58.49,44.52c0,.31,0-.16,0,0Z"/><path d="M59.09,44h-.62s0,.08,0,.11c0,.2,0,.33,0,.41,0-.16,0,.31,0,0,0,.06,0,.19,0,.48h.63c0-.14,0-.37,0-.78C59.11,44.15,59.1,44.07,59.09,44Z"/><path d="M53.68,37.56l-7.12-2L45.3,35.2a.07.07,0,0,1,0-.06c-.07-1.24-.06-1.25.95-2l.24-.19a6.22,6.22,0,0,0,2.29-3.62c.12-.56.14-1.14.2-1.73a.07.07,0,0,1,.07-.06l.33,0A2.84,2.84,0,0,0,52.08,25a7.88,7.88,0,0,0,0-1.39,1.78,1.78,0,0,0-1.22-1.45,2.54,2.54,0,0,0-.51-.14h-.42l-.31,0a.43.43,0,0,0-.58.46,12,12,0,0,1-.21,1.6c-.1,1.76-.58,3.59-.8,5.29a4.82,4.82,0,0,1-2,3q-1.1.88-2.23,1.73c.09.17.19.33.29.5.15-.11.3-.2.44-.32,0,.35,0,.69,0,1a1.92,1.92,0,0,1,.18,2,1.92,1.92,0,0,0-.18-2,14.1,14.1,0,0,1,0,1.51,2,2,0,0,1-1,1.4,6.67,6.67,0,0,1-6.59.31l-1,.09.16.13a7.32,7.32,0,0,0,7.69,0,2.8,2.8,0,0,0,1.38-2.42c0-.19,0-.37,0-.56.48,0,.65.13.64.54a3.42,3.42,0,0,1-1.71,2.93,8,8,0,0,1-8.29,0,4.3,4.3,0,0,1-.73-.57l-.71,0A6,6,0,0,0,38.58,41a8.81,8.81,0,0,0,4.5-.45c2.1-.8,3.43-2.11,3.41-4.34l.5.11,6.62,1.85A6.22,6.22,0,0,1,58.48,44h.62A7.12,7.12,0,0,0,53.68,37.56ZM48.89,25.87l.22,0a1.18,1.18,0,0,0,.18-.72h0c-.06.07-.11.14-.19.13s0-.06.19-.13h0c0-1-.75-2.06.6-2.12a.54.54,0,0,1,.85-.1c.34.3.59.36.64.6a4.68,4.68,0,0,1-.07,2.1c-.23.92-1.22,1.39-2.42,1.29Z"/><path d="M30.93,26h0Z"/><path class="cls-1" d="M45.23,35.86c.48,0,.65.13.64.54a3.42,3.42,0,0,1-1.71,2.93,8,8,0,0,1-8.29,0,3.4,3.4,0,0,1-1.74-3c0-.38.17-.51.64-.49,0,.19,0,.39,0,.58a2.79,2.79,0,0,0,1.4,2.41,7.32,7.32,0,0,0,7.69,0,2.8,2.8,0,0,0,1.38-2.42C45.24,36.24,45.23,36,45.23,35.86Z"/><path d="M30.31,21.27c-.1,0-.12-.06-.16-.17l-.09-.23,0,0-.19-.66c-.2-.7-.4-1.39-.58-2.09A13.21,13.21,0,0,1,29,16.4a2.78,2.78,0,0,1,.84-2.34l.21-.22a.73.73,0,0,0-.36.14l-.47.31-.59.39-.84.52.5-.86c.19-.33.37-.66.55-1a12.31,12.31,0,0,1,2.85-3.88,4.27,4.27,0,0,1-1.26-.95l-.37-.35L30,8.08l0-.46h.77c.4,0,.81,0,1.21,0s.78-.1,1.19-.17h0a10.09,10.09,0,0,1-.88-.72,9.12,9.12,0,0,1-1-1.26l-.41-.56.67.17a10.5,10.5,0,0,0,5.14-.36l.21,0a13.7,13.7,0,0,1,4.35-.42,8.34,8.34,0,0,1,4.92,2.32,2.86,2.86,0,0,1,.22.23l.12.13.13.13L46.71,7a2.64,2.64,0,0,1,.65-.51,2.49,2.49,0,0,1,1.09-.18h.74l-.54.46-.19.14a1.87,1.87,0,0,0-.33.28.59.59,0,0,0,0,.94,10.39,10.39,0,0,1,2.24,3.29,6.92,6.92,0,0,1,.35,3.88c-.19,1-.43,2-.67,3-.11.47-.23.94-.34,1.42,0,.17-.09.47-.14.76s-.08.48-.11.63l0,.23-.23,0a3.65,3.65,0,0,1-1.2-.46,4,4,0,0,0-.65-.3l-.14,0,0-.14a28.28,28.28,0,0,1-.67-4.53,19.91,19.91,0,0,1-6.4,1.06,43.75,43.75,0,0,1-6.55-.69l-1-.17-.23,0L32.07,20s0,0,.06,0a.39.39,0,0,1,.15.37.33.33,0,0,1-.18.21,1.21,1.21,0,0,1-.94.41A3.67,3.67,0,0,1,30.31,21.27ZM47.64,20a5.44,5.44,0,0,1,.6.29,4.28,4.28,0,0,0,.8.36l.06-.36c.05-.3.11-.62.15-.79.11-.48.22-1,.34-1.42.23-1,.47-2,.66-2.94a6.45,6.45,0,0,0-.32-3.61,10,10,0,0,0-2.14-3.13,1.08,1.08,0,0,1-.08-1.56l-.13.05a2.23,2.23,0,0,0-.52.42l-.26.25-.17.15-.24-.23-.24-.24L46,7.12l-.18-.19A7.86,7.86,0,0,0,41.2,4.74,13.25,13.25,0,0,0,37,5.15l-.21,0a12.41,12.41,0,0,1-4.72.49,6.21,6.21,0,0,0,.59.67,9.66,9.66,0,0,0,.85.69L34,7.4l.45.36-.57.09-.58.1c-.43.07-.83.14-1.24.17s-.85,0-1.26,0h0l0,0a3,3,0,0,0,1.5,1l.58.11-.49.34a10.89,10.89,0,0,0-3.1,4l-.05.1.2-.13a1,1,0,0,1,1.22,0l.23.17-.37.39-.3.32a2.27,2.27,0,0,0-.71,1.94A12.79,12.79,0,0,0,29.82,18c.18.69.37,1.38.57,2.08l.18.63.27-.1h0l.41-.15,0,.06a.6.6,0,0,0,.42-.21.46.46,0,0,1-.1-.48l.22-4.48.77.12,1,.17a43.27,43.27,0,0,0,6.48.69,19.5,19.5,0,0,0,6.28-1l.34-.07.26,0v.26A25.85,25.85,0,0,0,47.64,20Z"/><path d="M50.28,21.44c-.44-.15-.43-.17-.87-.31-.17-.06-.22-.16-.18-.35l.06-.27a12.36,12.36,0,0,1-1.87-.29v.07c-.6-.06-1.18-.15-1.77-.17s-1.21,0-1.82.07a5.6,5.6,0,0,0-.75.08,3.17,3.17,0,0,0-1.56.8.35.35,0,0,1-.49,0A.67.67,0,0,0,40.7,21c-.46,0-.91,0-1.37,0-.22,0-.43.1-.65.13a.42.42,0,0,1-.31,0A5.13,5.13,0,0,0,35,20a6.56,6.56,0,0,0-3.09.36s-.05,0-.11,0l0-.52c-.73.27-1.12,1.22-1.92,1.33-.22.1-.17.19-.45.29s-.08.36-.07.6.36,0,.42.23c.69,2.45.93,3,1,3.08a5.18,5.18,0,0,0,.41,1,2.42,2.42,0,0,0,1.27,1.33,4.63,4.63,0,0,0,3.07.39,3.5,3.5,0,0,0,2.63-2,10.88,10.88,0,0,0,.8-2.32,1.05,1.05,0,0,0-.09-.78.62.62,0,0,1,.35-1,2.09,2.09,0,0,1,1.24,0c.62.16.73.46.43,1.09a.92.92,0,0,0-.09.53,15.3,15.3,0,0,0,.47,1.82,3.82,3.82,0,0,0,1.27,2,4.43,4.43,0,0,0,5.14.1,2.57,2.57,0,0,0,.73-.85,10.21,10.21,0,0,0,.54-1.13v0A15.29,15.29,0,0,1,50,22.45c.32-.56.44-.39.45-.43C50.5,21.78,50.48,21.51,50.28,21.44ZM37.49,26.15a2.69,2.69,0,0,1-1.82,1.29,6,6,0,0,1-2.13,0,3,3,0,0,1-2.3-2.36c-.43-1.86-.57-2.73.24-3.63l.2-.11.21-.12a4.28,4.28,0,0,1,1.82-.47A8.12,8.12,0,0,1,36.6,21a2,2,0,0,1,1.51,1.86A4.93,4.93,0,0,1,37.49,26.15Zm10.86-.62c-.7,1.63-1.46,2.2-3.68,2.06a5.63,5.63,0,0,1-.73-.12,3.28,3.28,0,0,1-2.25-2.8c-.05-.35-.07-.71-.1-1.08a7.13,7.13,0,0,1,.13-1.09A2,2,0,0,1,43.12,21a8.66,8.66,0,0,1,3.05-.1,12.37,12.37,0,0,1,1.26.22,2.18,2.18,0,0,1,.92.33s.57.14.67,1.07A8.37,8.37,0,0,1,48.35,25.54Z"/><path d="M39.88,31.25a6.57,6.57,0,0,1-3.16-.57,5.37,5.37,0,0,1-.94-.59.43.43,0,0,1-.1-.66c.17-.19.39-.19.62,0a4.45,4.45,0,0,0,2.27.89,7.83,7.83,0,0,0,3.62-.21,10,10,0,0,0,1.41-.67c.2-.1.39-.16.54.06a.43.43,0,0,1-.15.62A6.05,6.05,0,0,1,39.88,31.25Z"/><path d="M33.33,24a1.51,1.51,0,0,1,2.21-1.53,1.73,1.73,0,0,1,.76,1.94.6.6,0,0,1-.4.32c-.21,0-.37-.12-.4-.35a5.08,5.08,0,0,1,0-.54.66.66,0,1,0-1.31,0c0,.14,0,.27,0,.41,0,.3-.18.49-.42.49s-.41-.19-.42-.48C33.33,24.14,33.33,24.06,33.33,24Z"/><path d="M46.86,24a2.45,2.45,0,0,1,0,.35.4.4,0,0,1-.42.38.39.39,0,0,1-.4-.36c0-.18,0-.36,0-.54a.66.66,0,1,0-1.31,0c0,.17,0,.34,0,.51a.41.41,0,0,1-.82.07A1.7,1.7,0,0,1,45,22.38,1.52,1.52,0,0,1,46.86,24Z"/><path d="M13.67,45.93c0-1,0-1.91,0-2.82,0-.3.08-.4.35-.4H39.44v.35q0,7.88,0,30.75a.46.46,0,0,1-.34.53,2.89,2.89,0,0,0-2,2.39,4.47,4.47,0,0,0,0,.88c0,.3-.1.42-.36.38h-25c-.45,0-.45,0-.45-.52q0-15.26,0-30.52c0-.51,0-.5.44-.59C12.38,46.24,13,46.08,13.67,45.93Zm23,31.68V46.85h-25V77.6Zm2.4-34.45c-.54.12-1,.22-1.55.35a6.93,6.93,0,0,0-2.33.92c-.49.35-.52.73,0,1.08a7.18,7.18,0,0,0,1.47.81c.33.13.41.31.41.68q0,6.58,0,28.17v.36a4,4,0,0,1,1.77-1.47c.23-.09.28-.22.27-.47q0-22.52,0-30ZM15.58,46.41H34.5c0-.43,0-.83,0-1.23a1.06,1.06,0,0,1,.49-1,10.75,10.75,0,0,1,1.28-.65c.35-.15.72-.24,1.14-.38H14.62c.17.16.31.29.45.42a1.64,1.64,0,0,1,.52,1.38C15.54,45.4,15.58,45.9,15.58,46.41ZM14,45.75A2.62,2.62,0,0,0,15.1,45a.66.66,0,0,0,.07-.75A2.94,2.94,0,0,0,14,43.19Zm1.2-.18-1.73.84h1.73Zm20.61.85-1-.66v.66Z"/><path class="cls-2" d="M39.1,43.15v.4q0,7.52,0,30c0,.25,0,.38-.27.47a4,4,0,0,0-1.77,1.47v-.36q0-21.58,0-28.17c0-.37-.08-.54-.41-.68a7.18,7.18,0,0,1-1.47-.81c-.48-.35-.46-.73,0-1.08a6.93,6.93,0,0,1,2.33-.92C38.06,43.37,38.56,43.27,39.1,43.15Z"/><path class="cls-3" d="M15.58,46.41c0-.51,0-1,0-1.49a1.64,1.64,0,0,0-.52-1.38c-.13-.14-.28-.26-.45-.42H37.41c-.42.14-.79.23-1.14.38a10.75,10.75,0,0,0-1.28.65,1.06,1.06,0,0,0-.49,1c0,.4,0,.8,0,1.23Z"/><path class="cls-2" d="M14,45.75V43.19a2.94,2.94,0,0,1,1.14,1.1.66.66,0,0,1-.07.75A2.62,2.62,0,0,1,14,45.75Z"/><path class="cls-4" d="M15.22,45.57v.84H13.49Z"/><path class="cls-4" d="M35.83,46.42h-1v-.66Z"/><path d="M30,52.37h.52s0,0,0,.05c0,1.47.05,2.94,0,4.41a5,5,0,0,1-1.78,3.52,7.1,7.1,0,0,1-4.88,1.84,7.11,7.11,0,0,1-5-1.81,5.28,5.28,0,0,1-1.84-4.29c0-1.12,0-2.24,0-3.36v-.36h.54c0,.1,0,.22,0,.33,0,1.12,0,2.24,0,3.36A4.7,4.7,0,0,0,19.35,60a6.74,6.74,0,0,0,4.86,1.57,6.65,6.65,0,0,0,3.73-1.28,4.79,4.79,0,0,0,2-3.12,5.49,5.49,0,0,0,.07-.91c0-1.18,0-2.35,0-3.53C30,52.61,30,52.5,30,52.37Z"/><path d="M17.32,50.79a.57.57,0,0,1,.55.58.54.54,0,1,1-.55-.58Z"/><path d="M30.32,52a.58.58,0,0,1-.52-.61.57.57,0,0,1,.56-.59.58.58,0,0,1,.51.62A.57.57,0,0,1,30.32,52Z"/><path d="M68.33,45c.44.09.44.08.44.59q0,15.26,0,30.52c0,.52,0,.52-.45.52h-25c-.26,0-.37-.08-.36-.38a4.47,4.47,0,0,0,0-.88A2.89,2.89,0,0,0,41,73a.46.46,0,0,1-.34-.53q0-22.88,0-30.75v-.35H66.06c.27,0,.35.1.35.4,0,.91,0,1.83,0,2.82C67.05,44.72,67.69,44.88,68.33,45Zm.08,31.23V45.49h-25V76.25ZM41,42.2q0,7.52,0,30c0,.25,0,.38.27.47A4,4,0,0,1,43,74.17v-.36q0-21.58,0-28.17c0-.37.08-.54.41-.68a7.18,7.18,0,0,0,1.47-.81c.48-.35.46-.73,0-1.08a6.93,6.93,0,0,0-2.33-.92c-.5-.13-1-.23-1.55-.35Zm23.52,1.37A1.64,1.64,0,0,1,65,42.19c.13-.14.28-.26.45-.42H42.66c.42.14.79.23,1.14.38a10.75,10.75,0,0,1,1.28.65,1.06,1.06,0,0,1,.49,1c0,.4,0,.8,0,1.23H64.5C64.5,44.54,64.53,44,64.49,43.56ZM66,41.84a2.94,2.94,0,0,0-1.14,1.1.66.66,0,0,0,.07.75,2.62,2.62,0,0,0,1.07.71Zm-1.2,3.21h1.73l-1.73-.84Zm-19.64,0V44.4l-1,.66Z"/><path class="cls-2" d="M41,41.8v.4q0,7.52,0,30c0,.25,0,.38.27.47A4,4,0,0,1,43,74.17v-.36q0-21.58,0-28.17c0-.37.08-.54.41-.68a7.18,7.18,0,0,0,1.47-.81c.48-.35.46-.73,0-1.08a6.93,6.93,0,0,0-2.33-.92C42,42,41.51,41.92,41,41.8Z"/><path class="cls-3" d="M64.5,45.05c0-.51,0-1,0-1.49A1.64,1.64,0,0,1,65,42.19c.13-.14.28-.26.45-.42H42.66c.42.14.79.23,1.14.38a10.75,10.75,0,0,1,1.28.65,1.06,1.06,0,0,1,.49,1c0,.4,0,.8,0,1.23Z"/><path class="cls-2" d="M66,44.39V41.84a2.94,2.94,0,0,0-1.14,1.1.66.66,0,0,0,.07.75A2.62,2.62,0,0,0,66,44.39Z"/><path class="cls-4" d="M64.85,44.21v.84h1.73Z"/><path class="cls-4" d="M44.24,45.07h1V44.4Z"/><path d="M50,51h-.52s0,0,0,.05c0,1.47-.05,2.94,0,4.41A5,5,0,0,0,51.29,59a7.59,7.59,0,0,0,9.88,0A5.28,5.28,0,0,0,63,54.75c0-1.12,0-2.24,0-3.36V51h-.54c0,.1,0,.22,0,.33,0,1.12,0,2.24,0,3.36a4.7,4.7,0,0,1-1.73,3.92,6.74,6.74,0,0,1-4.86,1.57,6.65,6.65,0,0,1-3.73-1.28,4.79,4.79,0,0,1-2-3.12A5.49,5.49,0,0,1,50,54.9c0-1.18,0-2.35,0-3.53C50,51.26,50,51.14,50,51Z"/><path d="M62.75,49.44a.57.57,0,0,0-.55.58.54.54,0,1,0,.55-.58Z"/><path d="M49.75,50.64a.58.58,0,0,0,.52-.61.57.57,0,0,0-.56-.59.58.58,0,0,0-.51.62A.57.57,0,0,0,49.75,50.64Z"/><rect class="cls-4" x="27.21" y="70.47" width="26.21" height="1.57" rx="0.75" ry="0.75" transform="translate(80.62 142.52) rotate(-180)"/><path d="M28,70.14h24.7a1.09,1.09,0,0,1,1.09,1.09v.07a1.09,1.09,0,0,1-1.09,1.09H28a1.09,1.09,0,0,1-1.09-1.09v-.07A1.09,1.09,0,0,1,28,70.14Zm25.12,1.16v-.07a.42.42,0,0,0-.42-.42H28a.42.42,0,0,0-.42.42v.07a.42.42,0,0,0,.42.42H52.66A.42.42,0,0,0,53.08,71.29Z"/><path class="cls-4" d="M31.62,65.06H48.83a1.14,1.14,0,0,1,1.23,1l1.62,4.45H29l1.23-4.31A1.29,1.29,0,0,1,31.62,65.06Z"/><path d="M31.62,64.78H48.83A1.46,1.46,0,0,1,50.4,66l1.74,4.77H28.57l1.32-4.62A1.62,1.62,0,0,1,31.62,64.78Zm19.61,5.47-1.5-4.17a.83.83,0,0,0-.89-.74H31.62a1,1,0,0,0-1.06.88v.06l-1.13,4Z"/><path d="M51.55,69.91c-2.21-1.13-2.55-3.11-3.32-5-.1-.25-.59-.14-.48.11.82,2,1.21,4,3.55,5.24.28.14.53-.22.25-.36Z"/><path d="M29.36,70.61c2.1-1.21,2.46-3.27,3.2-5.29.09-.26-.34-.37-.44-.11-.69,1.9-1,3.9-3,5-.25.14,0,.51.23.36Z"/><path class="cls-4" d="M29.39,72l22.3.22L50.4,76.77A1.18,1.18,0,0,1,49.29,78H31.6a1.18,1.18,0,0,1-1.1-1.25Z"/><path d="M51.36,72.19l-21.55.19,1,4.39a.85.85,0,0,0,.77.91H49.29a.85.85,0,0,0,.77-.91v-.09ZM29,71.7H52.13l-1.4,5.12a1.51,1.51,0,0,1-1.44,1.53H31.61a1.51,1.51,0,0,1-1.44-1.54Z"/><path d="M49.76,77.09c-1.19-1.15-.79-3.46.22-4.58.22-.24-.14-.6-.36-.36-1.19,1.33-1.62,3.94-.22,5.29.23.22.59-.13.36-.36Z"/><rect class="cls-4" x="27.21" y="57.47" width="26.21" height="1.57" rx="0.75" ry="0.75" transform="translate(80.62 116.52) rotate(-180)"/><path d="M28,57.14h24.7a1.09,1.09,0,0,1,1.09,1.09v.07a1.09,1.09,0,0,1-1.09,1.09H28a1.09,1.09,0,0,1-1.09-1.09v-.07A1.09,1.09,0,0,1,28,57.14Zm25.12,1.16v-.07a.42.42,0,0,0-.42-.42H28a.42.42,0,0,0-.42.42v.07a.42.42,0,0,0,.42.42H52.66A.42.42,0,0,0,53.08,58.29Z"/><path class="cls-4" d="M31.62,52.06H48.83a1.14,1.14,0,0,1,1.23,1l1.62,4.45H29l1.23-4.31A1.29,1.29,0,0,1,31.62,52.06Z"/><path d="M31.62,51.78H48.83A1.46,1.46,0,0,1,50.4,53l1.74,4.77H28.57l1.32-4.62A1.62,1.62,0,0,1,31.62,51.78Zm19.61,5.47-1.5-4.17a.83.83,0,0,0-.89-.74H31.62a1,1,0,0,0-1.06.88v.06l-1.13,4Z"/><path d="M51.55,56.91c-2.21-1.13-2.55-3.11-3.32-5-.1-.25-.59-.14-.48.11.82,2,1.21,4,3.55,5.24.28.14.53-.22.25-.36Z"/><path d="M29.36,57.61c2.1-1.21,2.46-3.27,3.2-5.29.09-.26-.34-.37-.44-.11-.69,1.9-1,3.9-3,5-.25.14,0,.51.23.36Z"/><path class="cls-4" d="M29.39,59l22.3.22L50.4,63.77A1.18,1.18,0,0,1,49.29,65H31.6a1.18,1.18,0,0,1-1.1-1.25Z"/><path d="M29,58.7H52.13l-1.4,5.12a1.51,1.51,0,0,1-1.44,1.53H31.61a1.51,1.51,0,0,1-1.44-1.54Zm22.39.49-21.55.19,1,4.39a.85.85,0,0,0,.77.91H49.29a.85.85,0,0,0,.77-.91v-.09Z"/><path d="M31.78,64.44c1.4-1.35,1-4-.22-5.29-.22-.24-.57.11-.36.36,1,1.12,1.41,3.43.22,4.58-.23.22.12.58.36.36Z"/><path d="M49.76,64.09c-1.19-1.15-.79-3.46.22-4.58.22-.24-.14-.6-.36-.36-1.19,1.33-1.62,3.94-.22,5.29.23.22.59-.13.36-.36Z"/><path d="M31.78,77.44c1.4-1.35,1-4-.22-5.29-.22-.24-.57.11-.36.36,1,1.12,1.41,3.43.22,4.58-.23.22.12.58.36.36Z"/></svg>