<svg id="Capa_1" data-name="Capa 1" xmlns="http://www.w3.org/2000/svg" viewBox="0 0 80 80"><defs><style>.cls-1,.cls-4,.cls-7{fill:#f2f2f2;}.cls-1,.cls-13,.cls-3,.cls-5,.cls-6,.cls-7,.cls-8,.cls-9{stroke:#000;}.cls-1,.cls-3,.cls-6,.cls-7,.cls-8{stroke-miterlimit:10;}.cls-1{stroke-width:0.25px;}.cls-2,.cls-3,.cls-8{fill:#fff;}.cls-13,.cls-3{stroke-width:0.75px;}.cls-12,.cls-13,.cls-5,.cls-9{fill:none;stroke-linejoin:round;}.cls-12,.cls-5,.cls-9{stroke-linecap:round;}.cls-12,.cls-5,.cls-6{stroke-width:0.5px;}.cls-10{fill:#f9e793;}.cls-11{fill:#181414;}.cls-12{stroke:#181414;}</style></defs><title>Mesa de trabajo 1</title><rect class="cls-1" x="29.05" y="50.56" width="23.38" height="1.4" rx="0.67" ry="0.67" transform="translate(81.48 102.53) rotate(-180)"/><path class="cls-1" d="M29.72,50.26h22a1,1,0,0,1,1,1v.06a1,1,0,0,1-1,1h-22a1,1,0,0,1-1-1v-.06A1,1,0,0,1,29.72,50.26Zm22.41,1v-.06a.37.37,0,0,0-.37-.37h-22a.37.37,0,0,0-.37.37v.06a.37.37,0,0,0,.37.37h22A.37.37,0,0,0,52.13,51.3Z"/><path class="cls-2" d="M33,45.73H48.34a1,1,0,0,1,1.1.91l1.45,4H30.65l1.1-3.85A1.16,1.16,0,0,1,33,45.73Z"/><path d="M33,45.48H48.34a1.31,1.31,0,0,1,1.39,1.12l1.55,4.26h-21l1.18-4.13A1.44,1.44,0,0,1,33,45.48Zm17.49,4.88-1.34-3.72a.74.74,0,0,0-.8-.66H33a.88.88,0,0,0-.95.79v.06l-1,3.54Z"/><path d="M50.77,50.06c-2-1-2.28-2.78-3-4.45-.09-.23-.53-.13-.43.1.73,1.78,1.08,3.6,3.17,4.67.25.13.47-.2.23-.32Z"/><path d="M31,50.68c1.88-1.08,2.19-2.92,2.85-4.72.08-.23-.31-.33-.39-.1-.62,1.69-.89,3.48-2.67,4.49-.22.13,0,.45.2.32Z"/><path class="cls-2" d="M31,52l19.89.2-1.15,4a1.05,1.05,0,0,1-1,1.11H33a1.05,1.05,0,0,1-1-1.11Z"/><path d="M30.62,51.65H51.29L50,56.22a1.35,1.35,0,0,1-1.28,1.37H33a1.35,1.35,0,0,1-1.28-1.37Zm20,.44-19.22.17.92,3.92A.76.76,0,0,0,33,57H48.75a.76.76,0,0,0,.68-.81V56.1Z"/><path d="M33.13,56.78c1.25-1.2.87-3.53-.19-4.72-.19-.22-.51.1-.32.32.9,1,1.26,3.06.19,4.09-.21.2.11.52.32.32Z"/><path d="M49.17,56.46c-1.06-1-.7-3.08.19-4.09.19-.21-.12-.53-.32-.32-1.06,1.19-1.44,3.52-.19,4.72.21.2.53-.12.32-.32Z"/><path class="cls-3" d="M11.28,76.42l34.7.34s1-6.3,1.84-12.35c.63-4.29,1.22-8.46,1.41-10.16.46-4.09-2.63-5.63-4.18-6.82s-12.18-4.25-12.18-4.25S31.26,46.06,29,46.23,24.52,43,24.52,43s-10.3,4-13.4,5.23-2.48,4.95-2.48,4.95L10.09,66l1.18,10.43L6,76.47A33.3,33.3,0,0,1,2.34,68.4c-1-3.88,6.25-17.14,6.25-17.14"/><rect class="cls-1" x="52.81" y="50.56" width="25.29" height="1.4" rx="0.7" ry="0.7" transform="translate(130.92 102.53) rotate(-180)"/><path class="cls-1" d="M53.49,50.26H77.42a1,1,0,0,1,1,1h0a1,1,0,0,1-1,1H53.49a1,1,0,0,1-1-1h0A1,1,0,0,1,53.49,50.26Zm24.28,1v0a.39.39,0,0,0-.39-.39H53.52a.39.39,0,0,0-.39.39v0a.39.39,0,0,0,.39.39H77.39A.39.39,0,0,0,77.78,51.28Z"/><path class="cls-2" d="M57.07,45.73H73.68a1.08,1.08,0,0,1,1.19.91l1.56,4H54.54l1.19-3.85A1.22,1.22,0,0,1,57.07,45.73Z"/><path d="M57.07,45.48H73.68a1.39,1.39,0,0,1,1.51,1.12l1.68,4.26H54.13l1.27-4.13A1.53,1.53,0,0,1,57.07,45.48ZM76,50.36l-1.45-3.72a.78.78,0,0,0-.86-.66H57.07a.93.93,0,0,0-1,.79v.06l-1.09,3.54Z"/><path d="M76.31,50.06c-2.13-1-2.46-2.78-3.2-4.45-.1-.23-.57-.13-.47.1.79,1.78,1.17,3.6,3.42,4.67.27.13.51-.2.24-.32Z"/><path d="M54.9,50.68c2-1.08,2.37-2.92,3.08-4.72.09-.23-.33-.33-.42-.1-.67,1.69-1,3.48-2.88,4.49-.24.13,0,.45.22.32Z"/><path class="cls-2" d="M54.92,52l21.51.2-1.24,4a1.09,1.09,0,0,1-1.06,1.11H57.06A1.09,1.09,0,0,1,56,56.18Z"/><path d="M54.51,51.65H76.87l-1.35,4.57a1.4,1.4,0,0,1-1.39,1.37H57.06a1.4,1.4,0,0,1-1.39-1.37Zm21.61.44-20.79.17,1,3.92a.78.78,0,0,0,.74.81H74.12a.78.78,0,0,0,.74-.81V56.1Z"/><path d="M57.22,56.78c1.35-1.2.94-3.53-.21-4.72-.21-.22-.55.1-.34.32,1,1,1.36,3.06.21,4.09-.23.2.12.52.34.32Z"/><path d="M74.58,56.46c-1.15-1-.76-3.08.21-4.09.21-.21-.13-.53-.34-.32-1.15,1.19-1.56,3.52-.21,4.72.23.2.57-.12.34-.32Z"/><path class="cls-4" d="M11.7,76.28a4.24,4.24,0,0,1,4-2.33c3,.07,27.31.37,27.31.37s2.18,1.2,2.57,2"/><circle cx="34.32" cy="55.59" r="0.88"/><circle cx="34.13" cy="58.66" r="0.88"/><circle cx="33.68" cy="63.53" r="0.88"/><circle cx="33.26" cy="68.4" r="0.88" transform="translate(-40.71 50.71) rotate(-50.62)"/><circle cx="32.56" cy="73.52" r="0.88"/><polyline class="cls-5" points="27.7 49.43 25.17 51.68 37.46 53.49 35.44 75.35"/><rect class="cls-6" x="52.73" y="57.25" width="23.7" height="0.63" rx="0.13" ry="0.13"/><path d="M40.34,30.88A3.23,3.23,0,0,0,39.11,28a.44.44,0,0,1-.11-.35,11.72,11.72,0,0,0-.21-4.79c-.83-3.15-2.73-4.09-6-4.77a22.63,22.63,0,0,1-2.57-.73,8.75,8.75,0,0,0-6.68.24c-4,1.86-6.41,5.84-5.34,10.16a.44.44,0,0,1-.11.5,3.78,3.78,0,0,0,.53,5.5.73.73,0,0,1,.31.47,8,8,0,0,1,0,1.45,5.82,5.82,0,0,0,2.68,5.87c.57.39,1.2.67,1.81,1,.11.06.54.12.7.19-.15.07-.42.26-.52.31-.36.16-1.15.44-1.51.59.06.28.13.18.19.45.48-.21,1.23-.32,1.71-.53.1.54.16,1,.28,1.51a5.62,5.62,0,0,0,1.94,3.17,3.56,3.56,0,0,0,4.61-.06,6,6,0,0,0,2-3.86c0-.26.15-.52.19-.83.49.21,1.06.17,1.54.38.17-.25.25-.11.52-.29-.44-.19-.89-.47-1.38-.68.4-.14.71-.23,1-.36a6.44,6.44,0,0,0,4-4.31,10.86,10.86,0,0,0,.24-3.44,1.94,1.94,0,0,1,.25-1.24A4.12,4.12,0,0,0,40.34,30.88Zm-18-12.66c2.18-1.82,4.73-1,7.38-.15,1.07.33,2.13.64,3.22.9,2.8.67,4.35,1.45,5,4.16a10.65,10.65,0,0,1,.13,4.47,5.05,5.05,0,0,1-.22.71c-.43-.34-.84-.67-1.26-1a17.29,17.29,0,0,1-4-4.22c-.34-.49-.44-.51-1-.21a19.11,19.11,0,0,1-3.92,1.52c-1,.32-2,.63-3,1A10.71,10.71,0,0,0,19.57,29a5.21,5.21,0,0,1-.64-2A9.44,9.44,0,0,1,22.36,18.23Zm8,29.28a2.72,2.72,0,0,1-3.79-.12,5.57,5.57,0,0,1-1.64-4c0-.3.18-.24.36-.19.76.19,1.53.35,2.29.56a5.56,5.56,0,0,0,3,0c.5-.14,1-.24,1.59-.37A5.52,5.52,0,0,1,30.31,47.5Zm7.58-9.56a5.3,5.3,0,0,1-3.37,3.77,23.8,23.8,0,0,1-5.31,1.38,5.46,5.46,0,0,1-1.76-.2,15.78,15.78,0,0,1-4.36-1.43,7,7,0,0,1-2.4-1.93,5.06,5.06,0,0,1-.9-3.86l.06-.53a4.43,4.43,0,0,0,4.31,2.17,7,7,0,0,0,.08.9,2.74,2.74,0,0,0,1.16,1.62,5.18,5.18,0,0,0,2.2.89.86.86,0,0,0,.54-.12c.3-.18.58-.41.88-.63a.05.05,0,0,1,0,0,1.75,1.75,0,0,0,2.39.42,8.4,8.4,0,0,0,1.26-.73,2.44,2.44,0,0,0,1-2.35,5.47,5.47,0,0,0,2.47-.43A3.73,3.73,0,0,0,38,35.16a1.21,1.21,0,0,1,.06.27A15.26,15.26,0,0,1,37.89,37.94ZM38.48,33a6.83,6.83,0,0,0-1.13,1.67,3.08,3.08,0,0,1-2.29,1.65,13,13,0,0,1-1.81,0,.71.71,0,0,0-.49.15.61.61,0,0,0,0,.52,1.43,1.43,0,0,1-.26,1.66,3.66,3.66,0,0,1-2.07,1.12.46.46,0,0,1-.35-.1,7.53,7.53,0,0,1-.68-.68c-.27-.31-.51-.31-.77,0-.89,1.06-.87,1-2.06.47a3.79,3.79,0,0,1-1.21-.91A1.33,1.33,0,0,1,25.18,37a.61.61,0,0,0,0-.52.67.67,0,0,0-.53-.15A4.35,4.35,0,0,1,21.91,36a2.33,2.33,0,0,1-1.38-1.79,1.11,1.11,0,0,0-.76-.84,2.9,2.9,0,0,1-1.58-3.71,7.5,7.5,0,0,1,.38-.76c.2.36.35.67.53,1,.28.46.59.45.89,0s.55-.75.84-1.11a2.25,2.25,0,0,1,1.84-.93c.81,0,1.61,0,2.42.1a2.8,2.8,0,0,1,.89.35c.25.12.47.13.62-.12a.39.39,0,0,0-.19-.6A12.91,12.91,0,0,0,24.77,27a7.66,7.66,0,0,0-1.21-.11l0-.09c.83-.32,1.65-.66,2.49-.95,1.44-.49,2.9-.93,4.34-1.42.56-.19,1.09-.46,1.6-.68L34.75,27a7.11,7.11,0,0,0-2.69.19,4.1,4.1,0,0,0-1,.48.58.58,0,0,0-.1.52.35.35,0,0,0,.54.16,5.1,5.1,0,0,1,3.16-.5,6.81,6.81,0,0,1,1.57.26,2,2,0,0,1,.81.61c.23.26.36.62.58.9a.64.64,0,0,0,.45.25c.13,0,.29-.19.36-.33a6.55,6.55,0,0,0,.29-.8,2.25,2.25,0,0,1,.81,1.77A3.18,3.18,0,0,1,38.48,33Z"/><path class="cls-3" d="M30.31,47.5a5.52,5.52,0,0,0,1.79-4.16c-.57.13-1.08.23-1.59.37a5.56,5.56,0,0,1-3,0c-.76-.21-1.52-.37-2.29-.56-.18,0-.38-.11-.36.19a5.57,5.57,0,0,0,1.64,4A2.72,2.72,0,0,0,30.31,47.5Z"/><path d="M29,38.39a3.62,3.62,0,0,1-2.68-1,2,2,0,0,1-.46-.67.59.59,0,0,1,.16-.51.36.36,0,0,1,.55.12,2.67,2.67,0,0,0,3.09,1.12,2.06,2.06,0,0,0,1.59-1.2.39.39,0,0,1,.58-.24.41.41,0,0,1,.18.61,3,3,0,0,1-2.25,1.68A7,7,0,0,1,29,38.39Z"/><path d="M29.29,35l-.61,0a1.17,1.17,0,0,1-1.06-1.41c.17-.75.35-1.51.53-2.26a.4.4,0,0,1,.51-.33.4.4,0,0,1,.32.52q-.22,1-.48,2c-.11.43,0,.57.42.6s.67,0,1,0,.48.08.51.38S30.28,35,30,35l-.71,0Z"/><path d="M24.64,30.36a.73.73,0,0,1-.74.75.75.75,0,0,1-.76-.74.76.76,0,0,1,.75-.76A.75.75,0,0,1,24.64,30.36Z"/><path d="M34.46,30.35a.73.73,0,0,1-.73.76.75.75,0,0,1-.76-.73.76.76,0,0,1,.74-.76A.75.75,0,0,1,34.46,30.35Z"/><path class="cls-7" d="M18,25l-.83-6.78a19.45,19.45,0,0,1,11.9-4.08,17.13,17.13,0,0,1,11.26,4.29L39,23.76S28.23,18.72,18,25Z"/><path class="cls-8" d="M22,17.15s2.55,2,1.49,3.89"/><path class="cls-8" d="M35,17.15s-2.55,2-1.49,3.89"/><path class="cls-9" d="M17.18,18.18l-2.78-1.6s-4.38-4.15,1-8.77S25.2,5.07,27.6,7c1.08.85,2,2.19,4.51,3.12s3.34.09,3.34.09"/><path class="cls-9" d="M40.34,18.39s7.38-3.69,2.82-10.07C39.5,4.93,33,9.16,33,9.16"/><polygon class="cls-10" points="18.83 56.58 20.33 55.16 18.32 54.8 17.47 52.89 16.99 53.83 17.42 54.8 19.43 55.16 17.93 56.58 18.14 58.1 19.12 58.66 18.83 56.58"/><path class="cls-11" d="M57.43,51.91a13.71,13.71,0,0,0,.17-2.19c.13-1.76.24-3.53.2-5.29a1.26,1.26,0,0,1,.64-1.32,4.57,4.57,0,0,0-1.95-2.54,3.23,3.23,0,0,1-.8-4.74,7.52,7.52,0,0,1,.49-.69C57.08,34,57.08,34,56,33l-1.49-1.36a1.1,1.1,0,0,1-.31-1.26c.18-.49.48-.71.94-.26a38.29,38.29,0,0,0,3.37,2.4,5.72,5.72,0,0,0-.78-1.86,2.06,2.06,0,0,1-.34-1.09.81.81,0,0,1,.62-.77c.4-.09.38.31.51.54.74,1.19,1.49,2.37,2.34,3.52a2.33,2.33,0,0,0,0-1.51c-.2-.54.32-.82.62-.89.52.2.75,1.68.81,1.91a37.4,37.4,0,0,1,1,4.37,6.05,6.05,0,0,1-.24,4.1c.83,0,.55.58.53,1-.19,3.6-.38,7.2-.61,10.8-.1,1.55-.3,3.09-.42,4.64-.09,1.1.35.55.11.62-.6.17.4.94.56-.34.4-3.2.51-6.42.76-9.63s-.07-6.27.39-9.38a2.36,2.36,0,0,0-.11-.84q-.84-3.61-1.69-7.22a1,1,0,0,0-1.69-.61,5.69,5.69,0,0,0-.72.82c-.37-.64-.72-1.14-1-1.68s-.5-1-1.13-.93a1.48,1.48,0,0,0-1.28,1.25c-.25,1.08-.24,1.08-1.15.29a1.15,1.15,0,0,0-2,.45,1.74,1.74,0,0,0,.39,2,10.67,10.67,0,0,0,1.34,1.21c.72.53.83.9.18,1.7-1.79,2.19-1.45,4.38.73,6.2a2.24,2.24,0,0,1,1.07,2.55c-.42,2.13.36,4.41,0,6.6C57.09,51.42,57.11,54,57.43,51.91Z"/><path class="cls-3" d="M63,40.85l-4.54,2.26a1.26,1.26,0,0,0-.64,1.32c0,1.77-.07,3.53-.2,5.29a4.75,4.75,0,0,1-3.22,4.52c-2,.74-3-1.37-5.49-3.68.79,3-.47,10.12-1.07,13.85.47-.29,9.54.34,12.29-1.21,1-.57,2.27-4.84,2.36-5.94.12-1.55.32-3.09.42-4.64.23-3.6.43-7.2.61-10.8C63.53,41.43,63.81,40.81,63,40.85Z"/><path class="cls-11" d="M55.93,38.58a2.16,2.16,0,0,0,.63-1.17c.06-.31.13-.67.43-.82.59-.29,1,.14,1.4.48.56.51,1.27,1,1,1.93-.19.6-.74.56-1.24.56A3.84,3.84,0,0,1,55.93,38.58Zm1.51-1.34a1.41,1.41,0,0,0-.23.38c-.08.4-.5.88.22,1.11.4.13,1,.36,1.18,0S58.33,38,58,37.69A4.06,4.06,0,0,0,57.44,37.24Z"/><path class="cls-12" d="M54.66,38.41s1.4,1.12,1.9-.17"/><polygon class="cls-13" points="21.14 54.9 19.27 56.61 19.63 59.12 17.43 57.88 15.15 58.99 15.65 56.51 13.89 54.69 16.4 54.4 17.59 52.16 18.64 54.46 21.14 54.9"/></svg>