<?xml version="1.0" encoding="utf-8"?>
<!-- Generator: Adobe Illustrator 16.0.0, SVG Export Plug-In . SVG Version: 6.00 Build 0)  -->
<!DOCTYPE svg PUBLIC "-//W3C//DTD SVG 1.1//EN" "http://www.w3.org/Graphics/SVG/1.1/DTD/svg11.dtd">
<svg version="1.1" id="Layer_1" xmlns="http://www.w3.org/2000/svg" xmlns:xlink="http://www.w3.org/1999/xlink" x="0px" y="0px"
	 width="386.174px" height="179.724px" viewBox="0 0 386.174 179.724" enable-background="new 0 0 386.174 179.724"
	 xml:space="preserve">
<g>
	<path fill="#414042" d="M249.932,69.025L225.647,70.9c0.221-1.38-2.18-1.568-4.008-1.655c-2.172-0.104-2.516-0.51-2.643-1.122
		c-0.531-10.247-6.152-16.942-6.152-16.942c4.018,2.39,8.254,0.508,8.654-3.475c0.053-0.527,0.723-0.746,1.352-1.181
		c0.627-0.435,0.555-1.432-0.656-2.38c-1.211-0.947-1.828-3.406-1.781-4.179c0,0,0.361,0.105,0.404-0.767
		c0.291-5.865-0.66-3.539-0.66-4.428c0-1.28,0.377-5.527-0.172-8.243c-0.326-1.61,3.104-6.903-1.781-8.419
		c-4.467-1.387-6.496,4.077-8.658,3.913c-0.914-0.071-4.934-0.681-6.189,3.663c-0.531,1.979-5.84-1.653-7.385,3.571
		c-0.891,3.017,1.184,6.034,5.076,5.021c1.465,0.192,3.73,4.357,3.195,4.562c-0.76,0.289-0.289,1.36,0.277,2.097
		c0.273,0.747,0.748,1.488,0.953,1.784c0.037,0.039,0.062,0.071,0.072,0.087c0.061,0.09,0.023,0.047-0.072-0.087
		c-0.641-0.716-5.428-5.106-15.783-3.262c-5.768,1.128-11.221-0.706-12.814-1.768c-1.594-1.062-2.748-0.824-1.979,2.015
		c0.844,3.114,6.188,6.836,10.908,6.69c-2.613,1.272-5.338,3.096-7.996,5.692c-9.154,8.938-5.764,19.576-5.498,21.024
		c0.557,1.203,1.066,1.063,1.621,0.729c0.553-0.333,0.736-0.233,1.199,1.16c0.014,0.035,0.029,0.068,0.041,0.104l-4.844,0.374
		c-6.098,0.395-7.273-3.3-7.273-3.3l-0.014,0.023c-1.408-2.938-4.898-3.636-8.959-3.374l-20.715,2.451V71.3
		c-0.957,0.2-1.652,0.789-1.588,1.792c0.062,1.005,0.863,1.417,1.838,1.491l0.115,0.003c0.053,0.002,0.107,0.011,0.164,0.007
		s0.111-0.02,0.166-0.029l16.75-0.711c0.936-0.061,1.734,0.644,1.795,1.575c0.061,0.931-0.645,1.735-1.576,1.796l-17.199,1.506
		c-1.041,0.166-1.803,0.723-1.736,1.798c0.066,1.073,0.955,1.507,2.008,1.533l17.191-0.684c0.934-0.061,1.734,0.649,1.799,1.578
		c0.061,0.939-0.645,1.734-1.58,1.796l-17.197,1.436c-0.951,0.152-1.652,0.691-1.588,1.678c0.061,0.983,0.873,1.311,1.83,1.342
		l20.84,0.141c4.062-0.26,7.438-1.395,8.457-4.496l0.02,0.021c0,0,0.99-3.306,7.086-3.699l9.324-0.323
		c3.352,1.851,7.227,2.303,8.752,2.259c2.549-0.071,1.137,0.873,0.705,1.552c-0.434,0.679-1.438,0.675-2.893-0.502
		c-1.453-1.175-3.361-1.338-4.268-0.288c-0.904,1.05-0.797,7.167-2.859,9.701s-3.047,5.062-0.615,5.9
		c3.229,1.115,6.951-3.206,8.941-5.973c0.344-0.479,1.24-3.178,9.484-2.969c6.721-0.193,15.285-5.102,16.078-11.153l6.762-0.235
		c1.637,0.879,3.326,1.266,4.344,1.036c0.529-0.12,0.656-0.565,0.604-1.208l25.053-0.872c1.818-0.122,4.049-2.143,4.027-4.879
		C254.377,70.338,251.75,68.909,249.932,69.025z M161.053,73.072c-1.559-1.964-2.406-2.89-8.551-2.58
		c-2.713,0.138-3.18-0.372-0.133-0.672c1.188-0.117,6.594-1.025,8.783,1.709C163.342,74.262,161.856,74.083,161.053,73.072z
		 M184.293,91.008c-1,0.692-0.41-2.792,0-4.303c0.408-1.512,1.539-0.8,2.074-0.282C187.93,87.935,185.292,90.317,184.293,91.008z
		 M219.627,42.409c0.439,0.041,0.768,0.372,0.732,0.742c-0.025,0.304-0.367,0.643-0.854,0.598c-0.438-0.039-0.768-0.371-0.732-0.741
		C218.807,42.638,219.19,42.37,219.627,42.409z M216.704,25.609c0.133,0.95,0.705,8.025,0.779,8.845
		c0.072,0.818-0.77,0.915-0.867,0.24c-0.1-0.674-0.814-8.263-1.146-9.051C215.137,24.856,216.553,24.528,216.704,25.609z
		 M211.581,26.819c0.631,0.358,2.264,7.918,2.344,8.256c0.113,0.467-0.234,0.711-0.572,0.17c-0.336-0.54-2.176-7.249-2.428-7.793
		C210.67,26.907,210.95,26.461,211.581,26.819z M216.458,41.225c0.838,0.062,2.264-0.155,1.367,1.026
		c-0.895,1.182-0.732,3.149,1.582,2.979c2.312-0.171,0.971,3.996-1.227,4.809c-3.457,1.277-6.594-0.511-7.951-5.1
		C209.825,43.572,212.784,41.207,216.458,41.225z M208.018,29.279c0.471,0.942,2.562,5.758,2.811,6.649
		c0.246,0.893-0.486,1.005-0.684,0.329c-0.199-0.676-2.59-6.046-2.936-6.674C206.862,28.957,207.733,28.714,208.018,29.279z
		 M203.78,32.3c-0.434-0.472-0.086-1.536,0.625-0.703c0.709,0.832,2.811,4.532,3.109,5.249c0.314,0.76-0.154,1.349-0.547,0.485
		C206.5,36.307,204.213,32.771,203.78,32.3z M202.758,43.696c0.281,0.223-0.008,0.167-1.117,0.108
		c-0.578-0.031-4.082-0.648-8.838,0.259C196.243,42.623,199.881,41.438,202.758,43.696z M183.37,43.004
		c-5.262-0.913-5.873-3.811-5.303-3.363c4.83,3.786,11.832,1.809,11.514,1.927C188.442,42.156,186.643,43.398,183.37,43.004z
		 M209.063,77.921c-0.049,0.4-0.229,1.181-0.479,1.942c-1.143,2.976-3.934,5.462-5.389,6.04c-3.506,1.393-9.137,1.115-8.961-0.732
		c0.178-1.85,7.283-3.613,7.52-5.068c0-0.003,0.002-0.005,0.002-0.008c0.018-0.112,0.018-0.214,0.004-0.305
		c-0.16-1.09-2.527-0.708-8.715,0.182c-0.205,0.03-0.41,0.054-0.617,0.072c-5.225,0.476-10.846-2.438-12.264-5.322
		c-0.361-0.731-0.455-1.461-0.199-2.134c1.303-3.427,10.328-5.068,15.27-4.262c5.615,0.917,9.154,2.368,11.252,4.056
		c0.115,0.093,0.225,0.187,0.332,0.281c1.375,1.214,2.043,2.537,2.225,3.865C209.106,76.993,209.108,77.46,209.063,77.921z
		 M210.208,72.094c-2.787-2.066-8-4.941-10.318-5.636c-0.145,0,2.848-1.279,1.617-3.957c0.145-0.073,7.588,7.191,13.127,9.219
		c0.023,0.008,0.041,0.018,0.061,0.028L210.208,72.094z M215.938,69.451c-1.521,0.125-3.625-1.328-9.535-7.048
		c-6.061-5.867-7.223-8.01-7.031-6.9c0.189,1.107,1.432,4.755-1.076,4.537c0,0-1.586-0.307-2.889-0.579s-2.451-0.424-2.646,0.71
		c-0.223,1.304,2.049,1.714,3.254,1.779c2.643,0.146,4.705,2.915-0.543,2.987c-5.246-0.108-13.355,2.721-15.531,3.692
		c-2.389,1.067-5.344,3.133-5.564,1.331c-0.498-4.055-0.922-19.329,20.082-24.169c6.922-1.345,18.643,3.941,22.334,16.901
		C217.661,66.096,217.458,69.325,215.938,69.451z M218.374,75.428c-1.385-1.691-0.955-3.218-0.014-3.964
		c0.188-0.148,0.396-0.27,0.615-0.352c1.066-0.395,2.422-0.154,3.195,0.058c0.215,0.059,0.385,0.115,0.492,0.155
		c0.375,0.144,0.66,0.418,0.438,0.879c-0.049,0.099-0.119,0.205-0.219,0.321c-0.15,0.177-0.246,0.375-0.295,0.606
		c-0.133,0.636,0.109,1.541,0.695,3.071C224.084,78.292,220.038,77.461,218.374,75.428z M250.956,71.658
		c-1.01,0.087-20.383,1.396-26.334,1.61c0.082-0.423,0.223-0.83,0.447-1.21c6.307-0.46,23.947-1.721,24.896-1.805
		C251.083,70.153,252.129,71.559,250.956,71.658z"/>
	<g>
		<path fill="#EF8977" d="M44.338,143.206c1.787-1.525,2.855-3.975,2.969-6.866c0.08-3.206-0.959-6.084-2.93-8.104
			c-2.01-2.062-4.832-3.149-8.158-3.149H21.635c-0.35,0-0.633,0.281-0.633,0.629v35.003c0,0.349,0.283,0.631,0.633,0.631h14.584
			c6.338,0,11.502-4.998,11.502-11.142C47.721,147.5,46.442,144.892,44.338,143.206z M35.598,139.117h-5.914v-5.778h5.914
			c1.914,0,2.771,1.45,2.771,2.888C38.37,137.619,37.502,139.117,35.598,139.117z M29.684,147.369h5.914
			c1.756,0,3.08,1.221,3.08,2.839c0,1.621-1.354,2.89-3.08,2.89h-5.914V147.369z"/>
		<path fill="#EF8977" d="M89.713,124.548c-6.053,0-11.141,2.018-14.719,5.829c-3.176,3.383-4.924,7.935-4.924,12.816
			c0,8.979,6.145,18.646,19.643,18.646c6.053,0,11.143-2.017,14.721-5.83c3.176-3.384,4.924-7.936,4.924-12.815
			C109.358,134.214,103.213,124.548,89.713,124.548z M97.536,150.173c-1.885,2.074-4.59,3.17-7.822,3.17
			c-7.16,0-10.422-5.273-10.422-10.174c0-2.673,0.922-5.161,2.6-7.004c1.885-2.074,4.592-3.17,7.822-3.17
			c7.162,0,10.424,5.273,10.424,10.174C100.137,145.842,99.211,148.329,97.536,150.173z"/>
		<path fill="#EF8977" d="M156.405,151.559c-0.18-0.097-0.396-0.1-0.576-0.009c-0.916,0.45-3.414,1.5-6.832,1.5
			c-7.08,0-10.307-5.198-10.307-10.026c0-2.635,0.914-5.087,2.572-6.902c1.861-2.045,4.537-3.126,7.734-3.126
			c2.92,0,4.559,0.687,6.111,1.45c0.184,0.091,0.398,0.086,0.578-0.012c0.18-0.097,0.303-0.274,0.326-0.479l0.875-7.186
			c0.035-0.279-0.123-0.548-0.381-0.657c-2.248-0.941-4.773-1.419-7.51-1.419c-13.297,0-19.354,9.534-19.354,18.393
			c0,4.808,1.723,9.289,4.85,12.623c3.523,3.754,8.539,5.739,14.504,5.739c2.65,0,5.99-0.607,8.316-1.512
			c0.273-0.104,0.438-0.382,0.398-0.672l-0.98-7.235C156.706,151.829,156.583,151.654,156.405,151.559z"/>
		<path fill="#EF8977" d="M199.45,124.245c-0.102-0.231-0.328-0.383-0.58-0.383h-0.771c-0.254,0-0.48,0.151-0.58,0.383
			l-15.512,36.228c-0.082,0.194-0.062,0.417,0.053,0.594c0.119,0.178,0.314,0.283,0.527,0.283h8.346c0.262,0,0.498-0.161,0.59-0.404
			l1.289-3.358h11.352l1.336,3.365c0.096,0.239,0.328,0.397,0.588,0.397h8.297c0.215,0,0.41-0.105,0.525-0.283
			c0.117-0.177,0.137-0.399,0.055-0.594L199.45,124.245z M200.954,149.774h-4.984l2.533-6.663L200.954,149.774z"/>
		<path fill="#EF8977" d="M252.985,125.135h-10.973c-0.35,0-0.633,0.282-0.633,0.63v34.954c0,0.349,0.283,0.631,0.633,0.631h10.973
			c5.863,0,10.791-1.958,14.258-5.66c3.074-3.288,4.77-7.71,4.77-12.446C272.012,134.521,266.057,125.135,252.985,125.135z
			 M260.579,150.027c-1.83,2.009-4.457,3.07-7.594,3.07h-2.977v-19.712h2.977c6.951,0,10.115,5.109,10.115,9.857
			C263.1,145.832,262.206,148.242,260.579,150.027z"/>
		<path fill="#EF8977" d="M303.467,125.135H296.1c-0.348,0-0.633,0.282-0.633,0.63v34.954c0,0.349,0.285,0.631,0.633,0.631h7.367
			c0.35,0,0.631-0.282,0.631-0.631v-34.954C304.098,125.417,303.817,125.135,303.467,125.135z"/>
		<path fill="#EF8977" d="M345.53,124.548c-6.051,0-11.141,2.018-14.721,5.829c-3.174,3.383-4.924,7.935-4.924,12.816
			c0,8.979,6.148,18.646,19.645,18.646c6.053,0,11.143-2.017,14.719-5.83c3.176-3.384,4.924-7.936,4.924-12.815
			C365.172,134.214,359.026,124.548,345.53,124.548z M353.352,150.173c-1.885,2.074-4.592,3.17-7.822,3.17
			c-7.162,0-10.422-5.273-10.422-10.174c0-2.673,0.922-5.161,2.598-7.004c1.887-2.074,4.594-3.17,7.824-3.17
			c7.162,0,10.424,5.273,10.424,10.174C355.954,145.842,355.03,148.329,353.352,150.173z"/>
	</g>
</g>
</svg>
